<svg width="19" height="20" viewBox="0 0 19 20" fill="none" xmlns="http://www.w3.org/2000/svg">
<path d="M4.96875 14.5312H14.0312V13.9583H4.96875V14.5312ZM9.47396 11.0938L12.7031 7.89062L12.2865 7.47396L9.76042 10V4.42708H9.1875V10L6.6875 7.47396L6.27083 7.89062L9.47396 11.0938ZM9.5 19.0625C8.25 19.0625 7.07812 18.8238 5.98437 18.3464C4.89062 17.8689 3.93142 17.2179 3.10677 16.3932C2.28212 15.5686 1.63108 14.6094 1.15365 13.5156C0.676215 12.4219 0.4375 11.25 0.4375 10C0.4375 8.75 0.676215 7.57378 1.15365 6.47135C1.63108 5.36892 2.28212 4.40972 3.10677 3.59375C3.93142 2.77778 4.89062 2.13108 5.98437 1.65365C7.07812 1.17622 8.25 0.9375 9.5 0.9375C10.75 0.9375 11.9262 1.17622 13.0286 1.65365C14.1311 2.13108 15.0903 2.77778 15.9062 3.59375C16.7222 4.40972 17.3689 5.36892 17.8464 6.47135C18.3238 7.57378 18.5625 8.75 18.5625 10C18.5625 11.25 18.3238 12.4219 17.8464 13.5156C17.3689 14.6094 16.7222 15.5686 15.9062 16.3932C15.0903 17.2179 14.1311 17.8689 13.0286 18.3464C11.9262 18.8238 10.75 19.0625 9.5 19.0625ZM9.5 18.4896C11.8611 18.4896 13.8663 17.6649 15.5156 16.0156C17.1649 14.3663 17.9896 12.3611 17.9896 10C17.9896 7.63889 17.1649 5.63368 15.5156 3.98437C13.8663 2.33507 11.8611 1.51042 9.5 1.51042C7.13889 1.51042 5.13368 2.33507 3.48437 3.98437C1.83507 5.63368 1.01042 7.63889 1.01042 10C1.01042 12.3611 1.83507 14.3663 3.48437 16.0156C5.13368 17.6649 7.13889 18.4896 9.5 18.4896Z" fill="#AD9064"/>
</svg>
