<?xml version="1.0" encoding="UTF-8"?><svg xmlns="http://www.w3.org/2000/svg" xmlns:xlink="http://www.w3.org/1999/xlink" viewBox="0 0 6653.49 5050.9"><defs><style>.cls-1{fill:#3f3e3c;}.cls-2{fill:#fff;}.cls-3{letter-spacing:-.02em;}.cls-4{letter-spacing:0em;}.cls-5{fill:#cfd2d3;}.cls-6{letter-spacing:-.02em;}.cls-7{letter-spacing:0em;}.cls-8{letter-spacing:-.02em;}.cls-9{font-size:74.99px;}.cls-9,.cls-10,.cls-11,.cls-12,.cls-13,.cls-14,.cls-15,.cls-16,.cls-17,.cls-18,.cls-19,.cls-20,.cls-21,.cls-22{font-family:YDIYGO330, YDIYGO330;}.cls-9,.cls-11,.cls-13,.cls-14,.cls-15,.cls-23{fill:#413d3c;}.cls-24{clip-path:url(#clippath-2);}.cls-25{isolation:isolate;}.cls-10{font-size:108.23px;}.cls-10,.cls-19,.cls-20,.cls-21{fill:#231815;}.cls-26{letter-spacing:-.02em;}.cls-27{letter-spacing:-.02em;}.cls-11{font-size:74.99px;}.cls-28{letter-spacing:-.04em;}.cls-29{stroke:#b6a787;stroke-miterlimit:10;stroke-width:8.9px;}.cls-29,.cls-30,.cls-31,.cls-32,.cls-33{fill:none;}.cls-34{letter-spacing:-.02em;}.cls-35{clip-path:url(#clippath-1);}.cls-36{clip-path:url(#clippath-4);}.cls-37{letter-spacing:-.02em;}.cls-12{font-size:90.58px;}.cls-12,.cls-16,.cls-17,.cls-18,.cls-22{fill:#a3a09c;}.cls-30{stroke-width:7.06px;}.cls-30,.cls-31,.cls-33{stroke-linejoin:round;}.cls-30,.cls-33{stroke:#fef9fb;}.cls-13{font-size:74.99px;}.cls-38{letter-spacing:-.02em;}.cls-39{letter-spacing:-.02em;}.cls-40{letter-spacing:-.02em;}.cls-41{letter-spacing:-.02em;}.cls-14{font-size:74.99px;}.cls-31{stroke:#413d3c;stroke-linecap:round;stroke-width:5.95px;}.cls-42{fill:#9ea1a2;}.cls-43{letter-spacing:0em;}.cls-15{font-size:74.99px;}.cls-44{letter-spacing:-.02em;}.cls-16{font-size:90.58px;}.cls-45{letter-spacing:-.02em;}.cls-46{letter-spacing:-.02em;}.cls-47{fill:#dacab7;}.cls-48{letter-spacing:-.02em;}.cls-49{clip-path:url(#clippath);}.cls-50{letter-spacing:0em;}.cls-51{clip-path:url(#clippath-3);}.cls-33{stroke-width:7.27px;}.cls-52{fill:#f4f5f5;}.cls-17{font-size:90.58px;}.cls-18{font-size:90.58px;}.cls-53{letter-spacing:-.02em;}.cls-19{font-size:81.47px;}.cls-54{fill:#bbb;}.cls-55{clip-path:url(#clippath-5);}.cls-56{letter-spacing:-.02em;}.cls-57{letter-spacing:-.02em;}.cls-58{letter-spacing:-.02em;}.cls-59{letter-spacing:-.02em;}.cls-60{letter-spacing:0em;}.cls-20{font-size:81.47px;}.cls-61{mix-blend-mode:multiply;}.cls-21{font-size:108.13px;}.cls-62{letter-spacing:-.02em;}.cls-22{font-size:90.58px;}.cls-63{letter-spacing:0em;}</style><clipPath id="clippath"><rect class="cls-32" width="6653.49" height="5050.9"/></clipPath><clipPath id="clippath-1"><rect class="cls-32" width="6653.49" height="5050.9"/></clipPath><clipPath id="clippath-2"><path class="cls-32" d="M2568.8,4249.11h388.63l280.06,186.08-.38,215.93-807.19,73.4,138.88-475.4Zm98.9-338.54l570.73,2.52-.81,457.04-271.72-180.53h0s0,0,0,0h0s0,0,0,0h-379.7l81.51-279.03Zm-517.27-2.29l380.34,1.68-81.69,279.64h-302.49l3.84-281.32Zm533.09-51.87l108.32-370.78,1342.95,521.02-501.71,608.46-339.83,30.9,1.4-787.11-56.12-.29v.26l-555-2.45Zm-2064.86-401.64l956.8-4.77,2.52,739.6H743.34l-124.69-734.83Zm1088.49,18.18l-.08-23.6,959.66-4.78-120.14,411.25-449.58-1.98-.04,2.93h-.08s-4.54,332.84-4.54,332.84h-382.75l-2.44-716.65Zm1130.76-110.61l94.99-101.81,666.4-714.23,75.46-80.87,157.89-169.23c85.16,44.9,272.1,146.25,469.22,271.21,289.54,183.54,490.81,347.11,589.96,478.67l-695.48,843.28-1358.43-527.03Zm249.12-1295.75c220.06,35.59,421.15,96.35,588.43,179.24,5.54,2.75,11.01,5.52,16.45,8.3l-127.84,137.01-77.4,82.96-443.29,475.11,43.65-882.62Zm-1380.48,1231.91l-3.55-1041.93-.25-71.9c261.09-101.34,583.48-155.82,924.05-154.8,134.99,.41,267.07,9.53,393.56,26.78l-47.9,968.55-227.09,243.39-39.25,42.06,.24,.23-.55-.16-.59,2.03-998.61,4.98-.07-19.23Zm3905.73-1476l157.36,159.22-215.75,261.6,58.39-420.82Zm-1255.13,639.91c-175.77-111.39-343.56-204.31-440.51-256.23l23.33-25.01,60.94-65.31,85.75-91.91,65.53-70.24,35.43-37.97,40.78-43.71,50.5-54.12,29.99-32.14,145.54-155.98,60.93-65.31,410.62-436.37,626.91,634.31-80.43,579.61-505.8,613.29c-112.5-142.14-316.73-307.37-609.53-492.92m-615.87-353.48c-176.42-87.43-386.75-151.88-615.93-190.24,43.68-70.51,145.71-227.35,291.28-402.71,180.96-217.99,467.69-509.38,806.05-659.68,111.9-49.7,217.1-89.57,314.53-121.54l80.57,81.51,33.96,34.36,181.7,183.84-420.57,446.94-62.67,67.17-76.06,81.53-47.34,50.74-52.7,56.49-89.82,96.27-77.39,82.94-43.33,46.44-50.8,54.44-62.69,67.19-50.89,54.54c-18.75-10.29-38.03-20.38-57.9-30.22m1024.47-1330.15l-36.18-36.61-49.76-50.35c160.5-43.92,294.01-65.43,394.08-75.66,62.83-6.42,117.1-8.95,162.01-9.4l-312.23,331.81-157.92-159.79Zm-284.22-287.57l142.9,2.07,.04,26.94,226.38-.3-.03-23.37,482.23,6.98-34.69,36.86c-54.93-1.82-131.47-.84-227.64,8.81-120.8,12.13-248.01,35.56-378.09,69.64-22.17,5.81-44.44,11.94-66.78,18.38l-144.31-146.01Zm-2301.61,785.17l-14.7-21.6,227.69-158.55h.02v-.02s.19-.13,.19-.13l-.17-.25,18.68-472.51,277.61-158.05,1604.59,23.21,190.85,193.1c-95.67,32.58-192.36,70.52-289.17,113.52-155.01,68.85-312.12,171.28-466.99,304.44-123.33,106.04-245.59,231.76-363.39,373.66-167.21,201.43-278.51,379.72-311.46,434.41-137.16-19.4-280.32-29.65-426.41-30.09-336.02-1.01-656.83,49.91-925.06,145.21l-1.69-495.12,76.93-2.42v-.39s201.99-140.66,201.99-140.66l13.36,19.63,187.13-127.4Zm-483.55-963.85l2461.27,38.17,113.12,114.45-1587.47-22.96v.01s-294.07,167.41-294.07,167.41l.03,.05h-.1s-18.75,474.21-18.75,474.21l-218.13,151.89-11.19-16.44-187.13,127.4,12.54,18.42-197.2,137.31-68.86,2.16-4.06-1192.08ZM6401.68,0l-493.61,488.86-375.42-5.43L5987.56,0h-180.69l-452.47,480.85-503.62-7.29-.03-22.65-226.38,.3,.03,19.08-165.93-2.4-243.91-246.78,.02-1.13-1.15-.02-.06-.06-.06,.06-2517.39-39.04L1695.3,0h-131.61l.61,178.88-523.3-8.11-118.6-1.84-539.95-8.38-118.97-1.84L0,154.62v131.62l204.66,3.17,111.67,1.73,666.95,10.34,111.36,1.73,470.11,7.29,4.08,1198.26L0,1558.09v23.01l1568.91-49.32,1.87,548.03L0,2703.86v141.61l1571.26-624.25,.46,134.74,2.88,843.52,.41,118.91L0,3325.21v131.79l558.24-1.92,124.64,734.53H0v59.51H692.97l136.05,801.79h60.46l-136.05-801.79h824.74l2.73,801.79h131.61l-2.73-801.79h721.9l-234.22,801.79h137.11l55.69-190.63,846.61-76.98-.46,267.61h56.12l.47-272.71,406.96-37-.08-.82,.29,.24,563.85-683.81,2389.48,927.04v-141.17l-2327.92-903.16,1561.08-1892.83,707.01-14.44,48.3-.99,11.53-.23v-131.63l-36.64,.75-619.78,12.66,656.42-795.92v-206.85l-799.7,969.64-837.57-847.45,495.07-526.1,406.16,5.87v-.37s.16,.15,.16,.15L6434.36,0h-32.68Z"/></clipPath><clipPath id="clippath-3"><rect class="cls-32" width="6653.49" height="5050.9"/></clipPath><clipPath id="clippath-4"><rect class="cls-32" x="1896.73" y="2575.38" width="31.22" height="33.47"/></clipPath><clipPath id="clippath-5"><rect class="cls-32" x="1896.73" y="2337.96" width="31.22" height="33.47"/></clipPath></defs><g class="cls-25"><g id="_레이어_2"><g id="_레이어_1-2"><g class="cls-49"><g class="cls-35"><rect class="cls-2" y="2.82" width="6653.49" height="5048.08"/><g class="cls-24"><rect class="cls-52" y="2.82" width="6653.49" height="5048.08"/></g><text class="cls-21" transform="translate(1118.09 2972.39) scale(1 1.03)"><tspan class="cls-39" x="0" y="0">학생교</tspan><tspan x="317.91" y="0">육</tspan></text><text class="cls-21" transform="translate(1215.41 3106.16) scale(1 1.03)"><tspan class="cls-39" x="0" y="0">문화</tspan><tspan x="211.94" y="0">원</tspan></text><text class="cls-21" transform="translate(3419.06 3447.51) scale(1 1.03)"><tspan class="cls-39" x="0" y="0">충북지</tspan><tspan x="317.91" y="0">방</tspan></text><text class="cls-21" transform="translate(3419.06 3581.28) scale(1 1.03)"><tspan class="cls-39" x="0" y="0">경찰</tspan><tspan x="211.94" y="0">청</tspan></text><text class="cls-21" transform="translate(3431.6 3039.72) scale(1 1.03)"><tspan class="cls-39" x="0" y="0">대영운</tspan><tspan x="317.91" y="0">전</tspan></text><text class="cls-21" transform="translate(3431.6 3173.49) scale(1 1.03)"><tspan class="cls-39" x="0" y="0">전문학</tspan><tspan x="317.91" y="0">원</tspan></text><text class="cls-21" transform="translate(4000.06 3683.84) scale(1 1.03)"><tspan class="cls-39" x="0" y="0">예비</tspan><tspan x="211.94" y="0">군</tspan></text><text class="cls-21" transform="translate(4000.06 3817.61) scale(1 1.03)"><tspan class="cls-39" x="0" y="0">훈련</tspan><tspan x="211.94" y="0">장</tspan></text><text class="cls-9" transform="translate(1453.82 1134.71) scale(1 1.02)"><tspan x="0" y="0">오</tspan></text><text class="cls-9" transform="translate(1453.82 1223.94) scale(1 1.02)"><tspan x="0" y="0">창</tspan></text><text class="cls-9" transform="translate(1454.57 1313.17) scale(1 1.02)"><tspan class="cls-6" x="0" y="0">I</tspan><tspan x="18.79" y="0">C</tspan></text><text class="cls-13" transform="translate(1046.52 2241.78) rotate(-21.17) scale(1 1.02)"><tspan class="cls-41" x="0" y="0">청주,</tspan><tspan class="cls-48" x="170.53" y="0"> </tspan><tspan class="cls-41" x="194.08" y="0">서청주</tspan><tspan class="cls-48" x="414.56" y="0">I</tspan><tspan class="cls-43" x="433.35" y="0">C</tspan></text><line class="cls-31" x1="1012.81" y1="2234.73" x2="935.62" y2="2265.46"/><polygon class="cls-23" points="934.17 2250.07 915.78 2273.35 945.14 2277.64 934.17 2250.07"/><line class="cls-31" x1="1488.26" y1="1042.38" x2="1488.44" y2="963.24"/><polygon class="cls-23" points="1503.26 967.62 1488.48 941.89 1473.59 967.55 1503.26 967.62"/><text class="cls-14" transform="translate(4075.25 2136.82) rotate(-.2) scale(1 1.02)"><tspan class="cls-37" x="0" y="0">내수·증</tspan><tspan x="247.1" y="0">평</tspan></text><text class="cls-14" transform="translate(4075.51 2209.75) rotate(-.2) scale(1 1.02)"><tspan class="cls-37" x="0" y="0">방</tspan><tspan x="73.49" y="0">향</tspan></text><line class="cls-31" x1="4150.81" y1="2044.62" x2="4204.37" y2="1989.13"/><polygon class="cls-23" points="4212.03 2002.56 4219.2 1973.77 4190.68 1981.95 4212.03 2002.56"/><text class="cls-11" transform="translate(2302.81 4376.14) rotate(15.41) scale(1 1.02)"><tspan x="0" y="0">청</tspan></text><text class="cls-11" transform="translate(2283.44 4446.45) rotate(15.41) scale(1 1.02)"><tspan x="0" y="0">주</tspan></text><text class="cls-11" transform="translate(2264.07 4516.75) rotate(15.41) scale(1 1.02)"><tspan x="0" y="0">시</tspan></text><text class="cls-11" transform="translate(2244.7 4587.06) rotate(15.41) scale(1 1.02)"><tspan x="0" y="0">청</tspan></text><line class="cls-31" x1="2260.63" y1="4650.64" x2="2232.4" y2="4745.84"/><polygon class="cls-23" points="2219.3 4728 2234.07 4740.2 2253.1 4738.03 2224.31 4773.08 2219.3 4728"/><text class="cls-16" transform="translate(2460.9 3406.1) rotate(-.1) scale(1 1.06)"><tspan class="cls-46" x="0" y="0">주성사거</tspan><tspan x="355.08" y="0">리</tspan></text><text class="cls-22" transform="translate(2787.04 3031.76) rotate(-1.22) scale(1 1.06)"><tspan class="cls-53" x="0" y="0">수름재</tspan><tspan class="cls-26" x="266.31" y="0"> </tspan><tspan class="cls-53" x="294.75" y="0">삼거</tspan><tspan x="472.29" y="0">리</tspan></text><text class="cls-17" transform="translate(2848.15 1982.44) rotate(8.11) scale(1 1.06)"><tspan class="cls-57" x="0" y="0">수반교차</tspan><tspan class="cls-50" x="355.08" y="0">로</tspan></text><text class="cls-12" transform="translate(4726.96 1056.19) scale(1 1.06)"><tspan class="cls-8" x="0" y="0">내수교차</tspan><tspan class="cls-63" x="355.08" y="0">로</tspan></text><text class="cls-16" transform="translate(1427.7 3409.82) rotate(-.1) scale(1 1.06)"><tspan class="cls-46" x="0" y="0">율량교차</tspan><tspan x="355.08" y="0">로</tspan></text><text class="cls-17" transform="translate(1570.64 2165.45) rotate(-13.6) scale(1 1.06)"><tspan class="cls-57" x="0" y="0">오동분기</tspan><tspan class="cls-50" x="355.08" y="0">점</tspan></text><rect class="cls-1" x="3350.06" y="3465.15" width="40.66" height="40.66"/><rect class="cls-1" x="1771.66" y="3514.71" width="40.66" height="40.66"/><text class="cls-21" transform="translate(959.38 3711.65) scale(1 1.03)"><tspan class="cls-38" x="0" y="0">사천</tspan><tspan x="211.94" y="0">초</tspan></text><rect class="cls-1" x="1210.68" y="3556.36" width="40.66" height="40.66"/><rect class="cls-1" x="1466.7" y="2818.52" width="40.66" height="40.66"/><text class="cls-10" transform="translate(2145.78 3670.99) scale(1 1.03)"><tspan class="cls-62" x="0" y="0">L</tspan><tspan class="cls-56" x="56.6" y="0">H</tspan><tspan class="cls-59" x="133.6" y="0">2단</tspan><tspan x="299.64" y="0">지</tspan></text><text class="cls-10" transform="translate(2233.34 3804.88) scale(1 1.03)"><tspan class="cls-59" x="0" y="0">아파</tspan><tspan x="212.12" y="0">트</tspan></text><rect class="cls-1" x="2484.89" y="3520.66" width="40.66" height="40.66"/><rect class="cls-1" x="2813.41" y="3642.65" width="40.66" height="40.66"/><text class="cls-21" transform="translate(2655.31 4456.09) scale(1 1.03)"><tspan class="cls-39" x="0" y="0">신흥</tspan><tspan x="211.94" y="0">고</tspan></text><rect class="cls-1" x="2655.3" y="4306.14" width="40.66" height="40.66"/><text class="cls-21" transform="translate(1511.58 4498.21) scale(1 1.03)"><tspan class="cls-39" x="0" y="0">대창율량A</tspan><tspan class="cls-28" x="491.52" y="0">P</tspan><tspan x="555.61" y="0">T</tspan></text><rect class="cls-1" x="1781.64" y="4338.87" width="40.66" height="40.66"/><rect class="cls-1" x="3338.16" y="2962.78" width="40.66" height="40.66"/><text class="cls-21" transform="translate(5652.1 2664.4) scale(1 1.03)"><tspan class="cls-39" x="0" y="0">보건과</tspan><tspan x="317.91" y="0">학</tspan></text><text class="cls-21" transform="translate(5652.1 2798.18) scale(1 1.03)"><tspan class="cls-39" x="0" y="0">대학</tspan><tspan x="211.94" y="0">교</tspan></text><rect class="cls-1" x="5581.53" y="2606.27" width="40.66" height="40.66"/><text class="cls-21" transform="translate(2532.96 854.73) scale(1 1.03)"><tspan class="cls-39" x="0" y="0">청주국제공</tspan><tspan class="cls-4" x="529.85" y="0">항</tspan></text><rect class="cls-1" x="2607.59" y="700.71" width="40.66" height="40.66"/><text class="cls-21" transform="translate(3923.09 1514.92) scale(1 1.03)"><tspan class="cls-39" x="0" y="0">덕일운</tspan><tspan x="317.91" y="0">전</tspan></text><text class="cls-21" transform="translate(3923.09 1648.69) scale(1 1.03)"><tspan class="cls-39" x="0" y="0">전문학</tspan><tspan x="317.91" y="0">원</tspan></text><rect class="cls-1" x="4271.71" y="1364.21" width="40.66" height="40.66"/><text class="cls-21" transform="translate(4860.72 889.75) scale(1 1.03)"><tspan class="cls-39" x="0" y="0">내수읍사무</tspan><tspan class="cls-4" x="529.85" y="0">소</tspan></text><rect class="cls-1" x="4949.37" y="736.38" width="40.66" height="40.66"/><rect class="cls-1" x="3936.2" y="3701.44" width="40.66" height="40.66"/><text class="cls-15" transform="translate(541.92 3279.42) rotate(-.3) scale(1 1.02)"><tspan class="cls-3" x="0" y="0">청주,</tspan><tspan class="cls-40" x="170.53" y="0"> </tspan><tspan class="cls-3" x="194.08" y="0">서청주</tspan><tspan class="cls-44" x="414.56" y="0">I</tspan><tspan class="cls-60" x="433.35" y="0">C</tspan></text><line class="cls-31" x1="499.56" y1="3258.33" x2="424.8" y2="3258.34"/><polygon class="cls-23" points="429.14 3243.51 403.45 3258.35 429.14 3273.18 429.14 3243.51"/><text class="cls-19" transform="translate(1962.91 1493.18) rotate(-.29) scale(1 1.02)"><tspan class="cls-27" x="0" y="0">오근장</tspan><tspan x="239.53" y="0">역</tspan></text><text class="cls-20" transform="translate(4627.98 418.37) rotate(.16) scale(1 1.02)"><tspan class="cls-58" x="0" y="0">내수</tspan><tspan x="159.69" y="0">역</tspan></text><text class="cls-21" transform="translate(2813.41 3795.11) scale(1 1.03)"><tspan class="cls-39" x="0" y="0">대원칸타빌</tspan><tspan class="cls-45" x="529.85" y="0"> </tspan><tspan class="cls-38" x="563.81" y="0">1</tspan><tspan x="623.74" y="0">차</tspan></text><text class="cls-21" transform="translate(1504.46 3666.91) scale(1 1.03)"><tspan class="cls-39" x="0" y="0">성모병</tspan><tspan x="317.91" y="0">원</tspan></text><text class="cls-18" transform="translate(3607.17 2151.58) rotate(26.2) scale(1 1.06)"><tspan class="cls-34" x="0" y="0">구성교차</tspan><tspan class="cls-7" x="355.08" y="0">로</tspan></text><text class="cls-16" transform="translate(4762.25 3051.6) rotate(-.1) scale(1 1.06)"><tspan class="cls-46" x="0" y="0">국동교차</tspan><tspan x="355.08" y="0">로</tspan></text><g class="cls-51"><path class="cls-2" d="M3323.72,2473.41l-86.39-64.27v-193.71c0-14.74-11.96-26.68-26.7-26.68H1517.95c-14.74,0-26.68,11.94-26.68,26.68v515.96c0,14.74,11.94,26.68,26.68,26.68h1692.68c14.74,0,26.7-11.94,26.7-26.68v-193.71l86.39-64.28Z"/><path class="cls-29" d="M3323.72,2473.41l-86.39-64.27v-193.71c0-14.74-11.96-26.68-26.7-26.68H1517.95c-14.74,0-26.68,11.94-26.68,26.68v515.96c0,14.74,11.94,26.68,26.68,26.68h1692.68c14.74,0,26.7-11.94,26.7-26.68v-193.71l86.39-64.28Z"/><path class="cls-42" d="M1816.41,2473.41c1.79-75.16,41.5-117.65,64.21-135.9-9.18-7.37-15.59-10.8-15.59-10.8,0,0-77.27,41.19-79.79,146.7,2.52,105.51,79.79,146.69,79.79,146.69,0,0,6.41-3.43,15.59-10.8-22.71-18.24-62.42-60.74-64.21-135.89"/><path class="cls-54" d="M1944.83,2473.41c-1.09,45.24-15.91,78.57-32.49,101.97,5.16,7.29,10.47,13.61,15.61,19.02,21.65-22.78,46.64-61.74,48.05-120.99-1.41-59.25-26.4-98.22-48.05-121-5.14,5.4-10.45,11.73-15.61,19.02,16.58,23.41,31.41,56.74,32.49,101.98"/><path class="cls-54" d="M1912.34,2337.96c-9.47-7.67-16.13-11.25-16.13-11.25,0,0-6.41,3.43-15.59,10.8,4.78,3.84,10.33,8.83,16.11,14.9,5.59-5.89,10.93-10.66,15.61-14.45"/><path class="cls-54" d="M1896.73,2594.4c-5.78,6.07-11.33,11.06-16.11,14.9,9.17,7.37,15.59,10.8,15.59,10.8,0,0,6.66-3.57,16.13-11.25-4.68-3.79-10.02-8.56-15.61-14.45"/><path class="cls-54" d="M1927.95,2352.41c5.78-6.07,11.33-11.06,16.11-14.9-9.17-7.37-15.57-10.8-15.57-10.8,0,0-6.68,3.57-16.14,11.25,4.68,3.79,10.02,8.57,15.61,14.45"/><path class="cls-54" d="M1879.85,2473.41c1.09-45.24,15.91-78.57,32.49-101.98-5.16-7.29-10.46-13.61-15.61-19.02-21.64,22.77-46.62,61.74-48.04,121,1.42,59.25,26.41,98.21,48.04,120.99,5.14-5.4,10.45-11.73,15.61-19.02-16.58-23.4-31.4-56.74-32.49-101.97"/><path class="cls-54" d="M1927.95,2594.4c-5.59,5.89-10.93,10.66-15.61,14.45,9.46,7.68,16.14,11.25,16.14,11.25,0,0,6.4-3.43,15.57-10.8-4.78-3.84-10.33-8.83-16.11-14.9"/><g class="cls-61"><g class="cls-36"><path class="cls-5" d="M1927.95,2594.4c-5.14-5.4-10.45-11.73-15.61-19.02-5.16,7.29-10.47,13.62-15.61,19.02,5.59,5.89,10.93,10.66,15.61,14.45,4.68-3.79,10.02-8.56,15.61-14.45"/></g></g><path class="cls-42" d="M1927.95,2594.4c-5.14-5.4-10.45-11.73-15.61-19.02-5.16,7.29-10.47,13.62-15.61,19.02,5.59,5.89,10.93,10.66,15.61,14.45,4.68-3.79,10.02-8.56,15.61-14.45"/><g class="cls-61"><g class="cls-55"><path class="cls-5" d="M1927.95,2352.41c-5.59-5.89-10.93-10.66-15.61-14.45-4.68,3.79-10.02,8.57-15.61,14.45,5.14,5.4,10.45,11.73,15.61,19.02,5.16-7.29,10.47-13.61,15.61-19.02"/></g></g><path class="cls-42" d="M1927.95,2352.41c-5.59-5.89-10.93-10.66-15.61-14.45-4.68,3.79-10.02,8.57-15.61,14.45,5.14,5.4,10.45,11.73,15.61,19.02,5.16-7.29,10.47-13.61,15.61-19.02"/><path class="cls-42" d="M1959.65,2326.71s-6.41,3.43-15.59,10.8c22.71,18.25,62.41,60.74,64.21,135.9-1.8,75.16-41.5,117.66-64.21,135.89,9.18,7.37,15.59,10.8,15.59,10.8,0,0,77.27-41.19,79.79-146.7-2.52-105.51-79.79-146.7-79.79-146.7"/><path class="cls-42" d="M2266.18,2606.47c-.11,.38-.37,.58-.76,.58h-3.89c-.43,0-.69-.19-.76-.58l-10.88-37.8c-1.86,6.32-3.7,12.61-5.53,18.87-1.81,6.26-3.66,12.57-5.51,18.93-.12,.38-.38,.58-.76,.58h-4.02c-.43,0-.68-.19-.76-.58l-11.93-41.64c-.07-.2-.06-.38,.06-.55,.11-.18,.3-.27,.53-.27h2.74c.55,0,.89,.28,1.05,.82l10.47,37.79c1.82-6.35,3.64-12.6,5.46-18.75,1.82-6.14,3.64-12.39,5.47-18.75,.07-.39,.24-.67,.51-.84,.27-.18,.58-.27,.93-.27h3.02c.66,0,1.09,.38,1.29,1.11l10.64,37.28c1.79-6.44,3.54-12.7,5.29-18.78,1.75-6.09,3.53-12.35,5.35-18.78,.08-.23,.22-.43,.41-.58,.19-.16,.41-.24,.65-.24h2.43c.24,0,.41,.09,.53,.27,.11,.17,.13,.35,.05,.55l-12.1,41.64Z"/><path class="cls-42" d="M2287.99,2592.45c-.04,1.94,.18,3.66,.68,5.15,.47,1.49,1.18,2.75,2.11,3.75,.93,1.01,2.05,1.79,3.34,2.33,1.3,.55,2.74,.82,4.34,.82s3-.15,4.36-.43c1.35-.29,2.61-.77,3.78-1.43,.5-.23,.76-.09,.76,.41v2.62c0,.35-.21,.62-.64,.82-1.28,.5-2.62,.88-4.01,1.12-1.4,.25-2.92,.38-4.54,.38-4.77,0-8.38-1.39-10.82-4.15-2.44-2.77-3.66-6.96-3.66-12.54,0-4.92,1.22-8.9,3.66-11.92,2.56-3.07,5.8-4.6,9.72-4.6,2.17,0,4.05,.39,5.64,1.16,1.59,.78,2.95,1.94,4.07,3.49,1.97,2.75,2.97,6.44,2.97,11.04,0,.51,0,.9-.04,1.17-.01,.27-.09,.46-.2,.59-.12,.11-.32,.18-.62,.19-.28,.02-.7,.03-1.24,.03h-19.65Zm17.44-3.31c0-1.59-.16-3-.47-4.25-.3-1.24-.79-2.36-1.45-3.37-1.45-2.29-3.52-3.43-6.23-3.43s-5.06,1.16-6.8,3.48c-.7,1.04-1.28,2.25-1.74,3.61-.47,1.35-.72,2.67-.76,3.95h17.44Z"/><path class="cls-42" d="M2346.37,2606.24c0,.54-.27,.81-.81,.81h-2.27c-.55,0-.82-.27-.82-.81v-4.36c-2.09,3.95-5.46,5.93-10.11,5.93-4.16,0-7.38-1.59-9.71-4.77-2.14-2.94-3.2-6.86-3.2-11.74,0-10.89,4.31-16.34,12.92-16.34,2.33,0,4.39,.46,6.18,1.4,1.81,.92,3.12,2.13,3.93,3.6v-18.31c0-.55,.28-.82,.82-.82h2.27c.54,0,.81,.27,.81,.82v44.59Zm-22.62-14.95c0,1.82,.14,3.48,.43,4.98,.29,1.49,.74,2.8,1.37,3.92,.85,1.4,1.89,2.47,3.1,3.2,1.23,.74,2.69,1.11,4.39,1.11,1.55,0,2.92-.4,4.1-1.22,1.18-.81,2.17-1.85,2.96-3.11,.8-1.26,1.39-2.68,1.78-4.24,.39-1.57,.58-3.11,.58-4.63,0-1.86-.19-3.57-.61-5.17-.4-1.59-1-2.97-1.8-4.14-.8-1.16-1.76-2.07-2.93-2.73-1.16-.66-2.52-.99-4.07-.99-3.3,0-5.79,1.42-7.49,4.25-.63,1.13-1.08,2.43-1.37,3.92-.29,1.5-.43,3.11-.43,4.86"/><path class="cls-42" d="M2385.1,2606.24c0,.54-.28,.81-.82,.81h-2.27c-.55,0-.82-.27-.82-.81v-4.36c-2.09,3.95-5.47,5.93-10.12,5.93-4.16,0-7.39-1.59-9.71-4.77-2.14-2.94-3.2-6.86-3.2-11.74,0-10.89,4.3-16.34,12.91-16.34,2.33,0,4.39,.46,6.18,1.4,1.81,.92,3.12,2.13,3.93,3.6v-18.31c0-.55,.27-.82,.82-.82h2.27c.54,0,.82,.27,.82,.82v44.59Zm-22.63-14.95c0,1.82,.15,3.48,.44,4.98,.28,1.49,.74,2.8,1.36,3.92,.85,1.4,1.89,2.47,3.11,3.2,1.23,.74,2.68,1.11,4.39,1.11,1.55,0,2.93-.4,4.11-1.22,1.18-.81,2.16-1.85,2.95-3.11,.81-1.26,1.39-2.68,1.77-4.24,.4-1.57,.59-3.11,.59-4.63,0-1.86-.2-3.57-.6-5.17-.42-1.59-1.02-2.97-1.81-4.14-.79-1.16-1.77-2.07-2.94-2.73-1.17-.66-2.52-.99-4.07-.99-3.29,0-5.79,1.42-7.5,4.25-.62,1.13-1.08,2.43-1.36,3.92-.29,1.5-.44,3.11-.44,4.86"/><path class="cls-42" d="M2397.84,2564.6c0-.78,.26-1.44,.81-2.01,.54-.57,1.2-.85,1.97-.85s1.45,.28,2.01,.85c.56,.56,.83,1.23,.83,2.01s-.28,1.43-.83,1.97c-.56,.54-1.23,.82-2.01,.82s-1.43-.27-1.97-.82c-.55-.54-.81-1.2-.81-1.97m4.12,42.44h-2.56c-.55,0-.82-.27-.82-.81v-29.83c0-.54,.27-.82,.82-.82h2.56c.54,0,.81,.28,.81,.82v29.83c0,.54-.28,.81-.81,.81"/><path class="cls-42" d="M2441.1,2606.24c0,.54-.28,.81-.82,.81h-2.32c-.55,0-.82-.27-.82-.81v-18.31c0-3.57-.65-6.09-1.93-7.59-1.28-1.49-3.07-2.24-5.4-2.24-3.15,0-5.54,.87-7.19,2.6-1.64,1.75-2.47,4.19-2.47,7.34v18.2c0,.54-.28,.81-.82,.81h-2.33c-.53,0-.81-.27-.81-.81v-23.26c0-1.67,0-2.96-.03-3.9-.01-.92-.05-1.82-.15-2.67-.05-.27,.03-.47,.2-.61,.19-.14,.39-.21,.61-.21h2.1c.55,0,.82,.28,.82,.82v3.2c1.07-1.67,2.39-2.89,3.92-3.67,1.54-.77,3.64-1.16,6.31-1.16,3.68,0,6.46,1.07,8.31,3.2,1.86,2.14,2.8,5.14,2.8,9.01v19.25Z"/><path class="cls-42" d="M2456.33,2614.68c-.46-.13-.66-.41-.58-.88l.16-2.56c0-.5,.26-.62,.77-.35,1.47,.66,2.89,1.14,4.24,1.42,1.35,.29,2.83,.44,4.41,.44,3.53,0,6.18-1.08,7.95-3.24,1.76-2.14,2.76-5.09,2.99-8.8-.9,1.75-2.21,3.06-3.96,3.96-1.74,.89-3.68,1.33-5.81,1.33-1.9,0-3.66-.35-5.3-1.05-1.62-.7-3.04-1.68-4.24-2.97-1.2-1.28-2.16-2.82-2.86-4.65-.68-1.82-1.05-3.83-1.05-6.05,0-2.6,.25-4.91,.73-6.95,.49-2.04,1.26-3.75,2.3-5.14,1.04-1.4,2.4-2.47,4.07-3.21,1.66-.73,3.68-1.09,6.04-1.09,2.05,0,3.87,.34,5.44,1.02,1.57,.68,3.17,1.89,4.79,3.63l-.11-3.14c0-.54,.27-.82,.81-.82h2.21c.54,0,.82,.28,.82,.82v23.26c0,2.52-.32,4.79-.96,6.83-.65,2.04-1.59,3.76-2.85,5.18-1.26,1.42-2.82,2.51-4.68,3.26-1.86,.75-4,1.13-6.41,1.13-1.74,0-3.27-.11-4.59-.32-1.32-.22-2.78-.57-4.36-1.07m20.01-23.5c0-4.15-.85-7.36-2.57-9.6-1.71-2.24-4.02-3.37-6.91-3.37-3.15,0-5.51,1.05-7.1,3.14-1.59,2.09-2.39,5.41-2.39,9.94,0,1.67,.24,3.21,.7,4.6,.47,1.39,1.12,2.59,1.92,3.58,.82,.99,1.78,1.76,2.91,2.32,1.12,.56,2.34,.84,3.66,.84s2.64-.28,3.84-.84c1.2-.56,2.24-1.35,3.12-2.39,.88-1.02,1.56-2.23,2.06-3.63,.5-1.39,.76-2.93,.76-4.59"/><path class="cls-42" d="M2533.62,2607.29c-1.16,.19-2.28,.33-3.38,.4-1.08,.08-2.38,.12-3.89,.12-2.41,0-4.55-.43-6.43-1.28-1.88-.85-3.46-2.02-4.77-3.5-1.29-1.47-2.29-3.21-2.99-5.23-.7-2.02-1.04-4.19-1.04-6.52s.36-4.54,1.1-6.54c.73-1.99,1.78-3.73,3.17-5.17,1.37-1.46,3.03-2.6,4.95-3.44,1.91-.83,4.08-1.25,6.48-1.25,1.28,0,2.45,.05,3.49,.14,1.04,.1,2.16,.28,3.37,.55,.55,.16,.8,.53,.76,1.1l-.17,1.86c-.08,.46-.37,.65-.88,.52-1.01-.31-1.98-.53-2.91-.66-.93-.14-1.95-.2-3.08-.2-1.97,0-3.72,.32-5.2,.95-1.49,.64-2.74,1.53-3.76,2.7-1,1.17-1.75,2.55-2.25,4.16-.51,1.61-.76,3.37-.76,5.26,0,1.74,.26,3.41,.79,5.01,.52,1.59,1.27,2.99,2.26,4.21,.99,1.22,2.19,2.2,3.61,2.91,1.41,.72,3.03,1.07,4.85,1.07,1.36,0,2.47-.06,3.37-.18,.89-.11,1.9-.33,3.02-.64,.58-.15,.9-.01,.94,.41l.17,2.15c.04,.58-.23,.92-.81,1.05"/><path class="cls-42" d="M2572.4,2591.35c0,2.29-.33,4.41-.99,6.36-.65,1.97-1.53,3.68-2.61,5.15-1.36,1.63-2.99,2.89-4.85,3.78-1.9,.89-4.03,1.34-6.43,1.34s-4.56-.44-6.46-1.34c-1.89-.89-3.53-2.15-4.88-3.78-1.09-1.47-1.94-3.18-2.59-5.15-.64-1.95-.95-4.07-.95-6.36,0-4.69,1.18-8.53,3.55-11.51,2.72-3.37,6.49-5.06,11.34-5.06,2.45,0,4.59,.42,6.46,1.25,1.86,.84,3.47,2.1,4.83,3.81,2.4,3.06,3.6,6.89,3.6,11.51m-4.3,0c0-1.82-.25-3.52-.73-5.11-.49-1.6-1.16-3-2.01-4.25-2.03-2.48-4.64-3.72-7.85-3.72-1.62,0-3.09,.32-4.39,.96-1.3,.64-2.45,1.56-3.47,2.76-.89,1.25-1.57,2.66-2.06,4.25-.49,1.59-.73,3.29-.73,5.11s.24,3.59,.73,5.18c.49,1.59,1.17,2.98,2.06,4.19,2.05,2.53,4.67,3.78,7.85,3.78,1.63,0,3.09-.33,4.39-.99,1.3-.66,2.46-1.58,3.47-2.79,.85-1.21,1.52-2.59,2.01-4.19,.48-1.59,.73-3.32,.73-5.18"/><path class="cls-42" d="M2608.69,2606.24c0,.54-.28,.81-.82,.81h-2.32c-.54,0-.81-.27-.81-.81v-18.31c0-3.57-.64-6.09-1.92-7.59-1.28-1.49-3.08-2.24-5.41-2.24-3.13,0-5.53,.87-7.18,2.6-1.65,1.75-2.47,4.19-2.47,7.34v18.2c0,.54-.27,.81-.81,.81h-2.33c-.54,0-.81-.27-.81-.81v-23.26c0-1.67-.01-2.96-.03-3.9-.02-.92-.07-1.82-.15-2.67-.04-.27,.03-.47,.2-.61,.17-.14,.38-.21,.61-.21h2.09c.54,0,.81,.28,.81,.82v3.2c1.09-1.67,2.4-2.89,3.93-3.67,1.53-.77,3.64-1.16,6.31-1.16,3.69,0,6.46,1.07,8.31,3.2,1.87,2.14,2.8,5.14,2.8,9.01v19.25Z"/><path class="cls-42" d="M2633.87,2606.3c-.2,.5-.59,.75-1.17,.75h-2.84c-.59,0-.96-.25-1.11-.75l-10.23-29.89c-.08-.2-.05-.38,.05-.55,.12-.17,.3-.27,.53-.27h2.62c.45,0,.81,.28,1.04,.82l8.61,26.62,8.97-26.62c.07-.24,.2-.43,.4-.58,.19-.15,.4-.24,.65-.24h2.55c.24,0,.41,.09,.52,.27,.13,.17,.14,.36,.06,.55l-10.64,29.89Z"/><path class="cls-42" d="M2656.14,2592.45c-.04,1.94,.18,3.66,.67,5.15,.48,1.49,1.19,2.75,2.12,3.75,.92,1.01,2.04,1.79,3.34,2.33,1.3,.55,2.74,.82,4.34,.82s3.01-.15,4.35-.43c1.35-.29,2.62-.77,3.78-1.43,.51-.23,.76-.09,.76,.41v2.62c0,.35-.2,.62-.63,.82-1.28,.5-2.63,.88-4.02,1.12-1.39,.25-2.91,.38-4.54,.38-4.77,0-8.37-1.39-10.81-4.15-2.45-2.77-3.66-6.96-3.66-12.54,0-4.92,1.22-8.9,3.66-11.92,2.55-3.07,5.8-4.6,9.71-4.6,2.17,0,4.04,.39,5.64,1.16,1.6,.78,2.95,1.94,4.08,3.49,1.97,2.75,2.96,6.44,2.96,11.04,0,.51,0,.9-.03,1.17-.01,.27-.08,.46-.2,.59-.12,.11-.32,.18-.61,.19-.29,.02-.71,.03-1.25,.03h-19.66Zm17.45-3.31c0-1.59-.16-3-.47-4.25-.3-1.24-.8-2.36-1.45-3.37-1.43-2.29-3.51-3.43-6.22-3.43s-5.06,1.16-6.8,3.48c-.7,1.04-1.29,2.25-1.75,3.61-.47,1.35-.72,2.67-.76,3.95h17.45Z"/><path class="cls-42" d="M2714.23,2606.24c0,.54-.27,.81-.82,.81h-2.33c-.54,0-.82-.27-.82-.81v-18.31c0-3.57-.63-6.09-1.91-7.59-1.28-1.49-3.09-2.24-5.42-2.24-3.12,0-5.52,.87-7.16,2.6-1.66,1.75-2.48,4.19-2.48,7.34v18.2c0,.54-.27,.81-.81,.81h-2.33c-.54,0-.82-.27-.82-.81v-23.26c0-1.67-.02-2.96-.03-3.9-.03-.92-.08-1.82-.15-2.67-.05-.27,.03-.47,.2-.61,.17-.14,.38-.21,.61-.21h2.09c.54,0,.81,.28,.81,.82v3.2c1.09-1.67,2.4-2.89,3.93-3.67,1.53-.77,3.63-1.16,6.31-1.16,3.68,0,6.45,1.07,8.32,3.2,1.86,2.14,2.78,5.14,2.78,9.01v19.25Z"/><path class="cls-42" d="M2742.74,2607.11c-1.64,.58-3.25,.87-4.83,.87-3.15,0-5.22-1.03-6.24-3.08-.66-1.4-.99-3.86-.99-7.38v-18.55h-5.46c-.55,0-.82-.28-.82-.81v-1.74c0-.54,.27-.82,.82-.82h5.46v-7.84c0-.58,.26-.88,.76-.88h2.44c.5,0,.75,.29,.75,.88v7.84h6.46c.55,0,.82,.28,.82,.82v1.74c0,.54-.27,.81-.82,.81h-6.46v20.52c0,3.45,1.4,5.18,4.19,5.18,1.09,0,2.31-.24,3.67-.7,.18-.08,.38-.08,.55,0,.17,.08,.27,.23,.27,.46l.11,1.52c.08,.54-.16,.93-.69,1.16"/><path class="cls-42" d="M2751.86,2564.6c0-.78,.27-1.44,.82-2.01,.54-.57,1.2-.85,1.97-.85s1.45,.28,2.02,.85c.56,.56,.84,1.23,.84,2.01s-.28,1.43-.84,1.97c-.57,.54-1.24,.82-2.02,.82s-1.43-.27-1.97-.82c-.55-.54-.82-1.2-.82-1.97m4.13,42.44h-2.56c-.54,0-.81-.27-.81-.81v-29.83c0-.54,.27-.82,.81-.82h2.56c.54,0,.81,.28,.81,.82v29.83c0,.54-.27,.81-.81,.81"/><path class="cls-42" d="M2797.56,2591.35c0,2.29-.33,4.41-.99,6.36-.65,1.97-1.53,3.68-2.61,5.15-1.36,1.63-2.97,2.89-4.87,3.78-1.87,.89-4.02,1.34-6.41,1.34s-4.56-.44-6.45-1.34c-1.9-.89-3.53-2.15-4.89-3.78-1.09-1.47-1.95-3.18-2.6-5.15-.64-1.95-.96-4.07-.96-6.36,0-4.69,1.19-8.53,3.56-11.51,2.71-3.37,6.49-5.06,11.34-5.06,2.43,0,4.59,.42,6.45,1.25,1.86,.84,3.47,2.1,4.83,3.81,2.4,3.06,3.6,6.89,3.6,11.51m-4.29,0c0-1.82-.25-3.52-.74-5.11-.49-1.6-1.15-3-2-4.25-2.01-2.48-4.63-3.72-7.85-3.72-1.64,0-3.09,.32-4.39,.96-1.3,.64-2.45,1.56-3.45,2.76-.91,1.25-1.59,2.66-2.08,4.25-.48,1.59-.72,3.29-.72,5.11s.24,3.59,.72,5.18c.49,1.59,1.17,2.98,2.08,4.19,2.05,2.53,4.67,3.78,7.85,3.78,1.62,0,3.09-.33,4.39-.99,1.29-.66,2.45-1.58,3.45-2.79,.85-1.21,1.51-2.59,2-4.19,.49-1.59,.74-3.32,.74-5.18"/><path class="cls-42" d="M2833.84,2606.24c0,.54-.27,.81-.82,.81h-2.32c-.53,0-.81-.27-.81-.81v-18.31c0-3.57-.63-6.09-1.92-7.59-1.28-1.49-3.08-2.24-5.41-2.24-3.14,0-5.54,.87-7.18,2.6-1.65,1.75-2.47,4.19-2.47,7.34v18.2c0,.54-.27,.81-.81,.81h-2.33c-.54,0-.82-.27-.82-.81v-23.26c0-1.67-.01-2.96-.03-3.9-.02-.92-.08-1.82-.15-2.67-.05-.27,.03-.47,.2-.61,.17-.14,.38-.21,.61-.21h2.08c.54,0,.81,.28,.81,.82v3.2c1.08-1.67,2.4-2.89,3.93-3.67,1.53-.77,3.63-1.16,6.31-1.16,3.68,0,6.45,1.07,8.32,3.2,1.85,2.14,2.78,5.14,2.78,9.01v19.25Z"/><path class="cls-42" d="M2140.36,2407.25c2.84,0,5.5,.86,7.97,2.57,2.48,1.71,4.3,4.1,5.49,7.17l31.88,83.77,32.63-84.88c2-5.21,7-8.64,12.58-8.64h21.92v133.02h-23.74l-.17-101.14-37.56,101.14h-15.77l-35.24-95.83,.18,95.83h-18.42v-114.78c0-4.02-.6-7.56-1.77-10.63-1.18-3.07-3.43-5.6-6.73-7.61h26.74Z"/><path class="cls-42" d="M2314.59,2540.27v-114.78c0-4.02-.59-7.56-1.76-10.63-1.19-3.07-3.43-5.6-6.73-7.61h85.9v16.82h-42.16c-4.13,0-6.88,.36-8.23,1.07-1.37,.71-2.04,2.54-2.04,5.49v32.23h46.94v16.13h-46.94v37.19c0,1.89,.15,3.33,.44,4.33,.3,1,.83,1.78,1.6,2.31,.76,.53,1.8,.85,3.1,.97,1.3,.11,3.01,.18,5.13,.18h45.18v16.3h-80.42Z"/><path class="cls-42" d="M2487.36,2407.25c6.74,0,13.46,.24,20.19,.7,6.74,.47,12.77,1.9,18.08,4.25,5.3,2.36,9.61,5.97,12.92,10.8,3.31,4.85,4.97,11.57,4.97,20.19,0,5.43-.72,10.16-2.13,14.17-1.41,4.02-3.36,7.44-5.85,10.27-2.47,2.84-5.34,5.11-8.58,6.83-3.26,1.7-6.72,2.99-10.37,3.81l35.78,61.99h-29.05l-32.58-57.92h-9.21v57.92h-24.8v-114.78c0-4.02-.6-7.56-1.78-10.63-1.18-3.07-3.42-5.6-6.73-7.61h39.14Zm31.18,36.84c0-4.37-.69-7.97-2.05-10.81-1.35-2.82-3.24-5.05-5.66-6.64-2.42-1.6-5.26-2.69-8.51-3.28-3.24-.59-6.75-.89-10.54-.89-2.48,0-4.4,.15-5.76,.44-1.36,.3-2.37,.79-3.01,1.51-.66,.71-1.07,1.62-1.24,2.75-.17,1.12-.26,2.51-.26,4.16v34.72h9.03c2.95,0,6.08-.27,9.39-.8,3.29-.53,6.31-1.59,9.02-3.19,2.71-1.59,4.99-3.83,6.82-6.72,1.83-2.9,2.76-6.65,2.76-11.25"/><path class="cls-42" d="M2593.76,2425.5c0-4.02-.59-7.56-1.78-10.63-1.17-3.07-3.41-5.6-6.73-7.61h25.16c2.35,0,4.37,.83,6.02,2.48,1.66,1.66,2.48,3.84,2.48,6.55v123.99h-25.15v-114.78Z"/><path class="cls-42" d="M2717.72,2407.25c9.31,0,18,.83,26.03,2.48,8.02,1.66,15.03,4.87,20.98,9.66,5.97,4.78,10.63,11.51,14,20.19,3.36,8.68,5.04,19.99,5.04,33.92,0,10.39-.91,19.25-2.74,26.57-1.82,7.32-4.37,13.45-7.61,18.42-3.26,4.96-7.12,8.89-11.6,11.78-4.49,2.88-9.42,5.07-14.79,6.55-5.38,1.47-11.1,2.42-17.18,2.84-6.08,.41-12.31,.62-18.68,.62h-31.01v-114.78c0-4.02-.59-7.56-1.77-10.63-1.18-3.07-3.43-5.6-6.73-7.61h46.06Zm40.03,66.59c0-7.91-.39-15.02-1.16-21.34-.77-6.31-2.48-11.66-5.14-16.03-2.66-4.37-6.49-7.71-11.51-10.01-5.03-2.3-11.84-3.46-20.46-3.46-5.08,0-8.62,.42-10.63,1.24-2,.83-3,2.78-3,5.85v85.36c0,1.42,.05,2.69,.16,3.82,.12,1.12,.53,2.09,1.25,2.92,.71,.83,1.8,1.47,3.28,1.95,1.48,.47,3.63,.7,6.47,.7,8.25,0,15.05-.97,20.37-2.92,5.31-1.95,9.47-4.96,12.48-9.03,3.01-4.08,5.07-9.33,6.2-15.76,1.12-6.45,1.68-14.2,1.68-23.3"/><path class="cls-42" d="M2941.57,2540.1h-26.05l-13.81-38.97h-42.51l-14.17,39.15h-20.37l39.32-106.81c.24-.7,.55-1.62,.97-2.75,.42-1.12,.8-2.28,1.16-3.45,.35-1.17,.64-2.36,.88-3.54,.24-1.18,.35-2.18,.35-3.01,0-2.01-.27-4.34-.8-7-.53-2.66-2.21-4.87-5.04-6.65h19.83c3.78,0,6.73,.86,8.85,2.57,2.13,1.72,3.85,4.17,5.14,7.35l46.23,123.1Zm-46.42-56.15l-14.87-41.8-14.7,41.8h29.57Z"/><polygon class="cls-47" points="3643.43 2792.9 3424.09 2782.55 3393.4 2332.63 3643.43 2332.63 3643.43 2792.9"/><polygon class="cls-33" points="3643.43 2792.9 3424.09 2782.55 3393.4 2332.63 3643.43 2332.63 3643.43 2792.9"/><polygon class="cls-47" points="3764.48 2680.38 3643.43 2792.9 3643.43 2332.63 3779.83 2270.77 3764.48 2680.38"/><polygon class="cls-33" points="3764.48 2680.38 3643.43 2792.9 3643.43 2332.63 3779.83 2270.77 3764.48 2680.38"/><polygon class="cls-47" points="3643.43 2332.63 3393.4 2332.63 3564.52 2270.77 3779.83 2270.77 3643.43 2332.63"/><polygon class="cls-30" points="3643.43 2332.63 3393.4 2332.63 3564.52 2270.77 3779.83 2270.77 3643.43 2332.63"/></g></g></g></g></g></g></svg>