<svg width="26" height="23" viewBox="0 0 26 23" fill="none" xmlns="http://www.w3.org/2000/svg">
<path d="M23.1562 11.4375H19.25V8.3125C19.25 6.58887 20.6514 5.1875 22.375 5.1875H22.7656C23.415 5.1875 23.9375 4.66504 23.9375 4.01562V1.67188C23.9375 1.02246 23.415 0.5 22.7656 0.5H22.375C18.0586 0.5 14.5625 3.99609 14.5625 8.3125V20.0312C14.5625 21.3252 15.6123 22.375 16.9062 22.375H23.1562C24.4502 22.375 25.5 21.3252 25.5 20.0312V13.7812C25.5 12.4873 24.4502 11.4375 23.1562 11.4375ZM9.09375 11.4375H5.1875V8.3125C5.1875 6.58887 6.58887 5.1875 8.3125 5.1875H8.70312C9.35254 5.1875 9.875 4.66504 9.875 4.01562V1.67188C9.875 1.02246 9.35254 0.5 8.70312 0.5H8.3125C3.99609 0.5 0.5 3.99609 0.5 8.3125V20.0312C0.5 21.3252 1.5498 22.375 2.84375 22.375H9.09375C10.3877 22.375 11.4375 21.3252 11.4375 20.0312V13.7812C11.4375 12.4873 10.3877 11.4375 9.09375 11.4375Z" fill="#5E5446"/>
</svg>
