<svg width="26" height="23" viewBox="0 0 26 23" fill="none" xmlns="http://www.w3.org/2000/svg">
<path d="M23.1562 0.5H16.9062C15.6123 0.5 14.5625 1.5498 14.5625 2.84375V9.09375C14.5625 10.3877 15.6123 11.4375 16.9062 11.4375H20.8125V14.5625C20.8125 16.2861 19.4111 17.6875 17.6875 17.6875H17.2969C16.6475 17.6875 16.125 18.21 16.125 18.8594V21.2031C16.125 21.8525 16.6475 22.375 17.2969 22.375H17.6875C22.0039 22.375 25.5 18.8789 25.5 14.5625V2.84375C25.5 1.5498 24.4502 0.5 23.1562 0.5ZM9.09375 0.5H2.84375C1.5498 0.5 0.5 1.5498 0.5 2.84375V9.09375C0.5 10.3877 1.5498 11.4375 2.84375 11.4375H6.75V14.5625C6.75 16.2861 5.34863 17.6875 3.625 17.6875H3.23438C2.58496 17.6875 2.0625 18.21 2.0625 18.8594V21.2031C2.0625 21.8525 2.58496 22.375 3.23438 22.375H3.625C7.94141 22.375 11.4375 18.8789 11.4375 14.5625V2.84375C11.4375 1.5498 10.3877 0.5 9.09375 0.5Z" fill="#5E5446"/>
</svg>
