<?xml version="1.0" encoding="UTF-8"?><svg id="_레이어_2" xmlns="http://www.w3.org/2000/svg" viewBox="0 0 697.31 475.41"><defs><style>.cls-1{fill:#fff;}</style></defs><g id="_레이어_2-2"><path class="cls-1" d="M266.75,124.5c1.71-63.96,35.41-99.94,54.25-115.36C313.59,2.86,307.87,0,307.87,0,307.87,0,242.77,34.84,240.48,124.5c2.28,89.66,67.39,124.5,67.39,124.5,0,0,5.71-2.86,13.14-9.14-18.85-15.99-52.54-51.97-54.25-115.36"/><path class="cls-1" d="M375.84,124.5c-1.14,38.26-13.71,66.82-27.41,86.24,4.57,6.28,9.14,11.42,13.14,15.99,18.28-19.42,39.41-52.54,40.55-102.8-1.14-50.26-22.27-83.38-40.55-102.8-4.57,4.57-9.14,9.71-13.14,15.99,13.71,20.56,26.27,49.11,27.41,87.38"/><path class="cls-1" d="M348.42,9.71C340.43,2.86,334.72,0,334.72,0,334.72,0,329,2.86,321.58,9.14c4,3.43,8.57,7.42,13.71,12.56,4.57-5.14,9.14-9.14,13.14-11.99"/><path class="cls-1" d="M335.29,226.73c-5.14,5.14-9.71,9.14-13.71,12.56,8,6.28,13.14,9.14,13.14,9.14,0,0,5.71-2.86,13.71-9.71-4-2.86-8.57-6.85-13.14-11.99"/><path class="cls-1" d="M361.56,21.7c5.14-5.14,9.71-9.14,13.71-12.56-8-6.28-13.14-9.14-13.14-9.14,0,0-5.71,2.86-13.71,9.71,4,2.86,8.57,6.85,13.14,11.99"/><path class="cls-1" d="M320.44,124.5c1.14-38.26,13.71-66.82,27.41-86.24-4.57-6.28-9.14-11.42-13.14-15.99-18.28,19.42-39.41,52.54-40.55,102.8,1.14,50.26,22.27,83.38,40.55,102.8,4.57-4.57,9.14-9.71,13.14-15.99-13.71-21.13-26.27-49.11-27.41-87.38"/><path class="cls-1" d="M361.56,226.73c-4.57,5.14-9.14,9.14-13.14,11.99,8,6.28,13.71,9.71,13.71,9.71,0,0,5.71-2.86,13.14-9.14-4-2.86-9.14-7.42-13.71-12.56"/><rect class="cls-1" x="335.29" y="210.74" width="26.27" height="28.56"/><path class="cls-1" d="M361.56,226.73c-4.57-4.57-9.14-9.71-13.14-15.99-4.57,6.28-9.14,11.42-13.14,15.99,4.57,5.14,9.14,9.14,13.14,11.99,4-2.86,8.57-6.85,13.14-11.99"/><path class="cls-1" d="M361.56,226.73c-4.57-4.57-9.14-9.71-13.14-15.99-4.57,6.28-9.14,11.42-13.14,15.99,4.57,5.14,9.14,9.14,13.14,11.99,4-2.86,8.57-6.85,13.14-11.99"/><rect class="cls-1" x="335.29" y="9.71" width="26.27" height="28.56"/><path class="cls-1" d="M361.56,21.7c-4.57-5.14-9.14-9.14-13.14-11.99-4,3.43-8.57,7.42-13.14,11.99,4.57,4.57,9.14,9.71,13.14,15.99,4-5.71,8.57-11.42,13.14-15.99"/><path class="cls-1" d="M361.56,21.7c-4.57-5.14-9.14-9.14-13.14-11.99-4,3.43-8.57,7.42-13.14,11.99,4.57,4.57,9.14,9.71,13.14,15.99,4-5.71,8.57-11.42,13.14-15.99"/><path class="cls-1" d="M388.4,0s-5.71,2.86-13.14,9.14c19.42,15.42,53.11,51.4,54.25,115.36-1.71,63.96-35.41,99.94-54.25,115.36,8,6.28,13.14,9.14,13.14,9.14,0,0,65.68-34.84,67.39-124.5C454.08,34.84,388.4,0,388.4,0"/><path class="cls-1" d="M128.69,466.91c0,.57-.57,.57-.57,.57h-3.4c-.38,0-.57-.19-.57-.57l-9.07-31.75c-1.7,5.1-2.83,10.77-4.54,15.87-1.7,5.1-2.83,10.77-4.54,15.87,0,.57-.57,.57-.57,.57h-3.4c-.38,0-.57-.19-.57-.57l-10.2-35.15v-.57h2.83c.38,0,.76,.19,1.13,.57l8.5,32.31c1.7-5.1,2.83-10.77,4.54-15.87,1.7-5.1,2.83-10.2,4.54-15.87,0-.38,.19-.57,.57-.57h2.83c.57,0,1.13,.57,1.13,1.13l9.07,31.18c1.7-5.67,2.83-10.77,4.54-15.87,1.7-5.1,2.83-10.2,4.54-15.87,0,0,0-.57,.57-.57h3.4v.57s-10.77,34.58-10.77,34.58Z"/><path class="cls-1" d="M146.83,455.57c0,1.7,0,2.83,.57,4.54,.57,1.13,1.13,2.27,1.7,3.4,.57,1.13,1.7,1.7,2.83,1.7,1.13,.57,2.27,.57,3.4,.57s2.27,0,3.4-.57c1.13,0,2.27-.57,3.4-1.13,.38,0,.57,.19,.57,.57v2.27c0,.38-.19,.57-.57,.57-1.13,.57-2.27,.57-3.4,1.13-1.13,0-2.27,.57-3.97,.57-3.97,0-6.8-1.13-9.07-3.4-2.27-2.27-2.83-5.67-2.83-10.77,0-3.97,1.13-7.37,2.83-10.2,2.27-2.83,5.1-3.97,7.94-3.97,1.7,0,3.4,.57,4.54,1.13s2.27,1.7,3.4,2.83c1.7,2.27,2.27,5.67,2.27,9.07v1.7h-1.7s-15.31,0-15.31,0Zm14.74-2.83c0-1.13,0-2.27-.57-3.4,0-1.13-.57-1.7-1.13-2.83-1.13-1.7-2.83-2.83-5.1-2.83s-4.54,1.13-5.67,2.83c-.57,1.13-1.13,1.7-1.7,2.83-.57,1.13-.57,2.27-.57,3.4h14.74Z"/><path class="cls-1" d="M196.15,466.91c0,.38-.19,.57-.57,.57h-1.7c-.38,0-.57-.19-.57-.57v-3.4c-1.7,3.4-4.54,5.1-8.5,5.1-3.4,0-6.24-1.13-7.94-3.97-1.7-2.27-2.83-5.67-2.83-9.64,0-9.07,3.4-13.61,10.77-13.61,1.7,0,3.97,.57,5.1,1.13,1.7,.57,2.83,1.7,3.4,2.83v-15.31c0-.38,.19-.57,.57-.57h1.7c.38,0,.57,.19,.57,.57v36.85Zm-18.71-12.47c0,1.7,0,2.83,.57,3.97,0,1.13,.57,2.27,1.13,3.4,.57,1.13,1.7,2.27,2.83,2.83s2.27,1.13,3.97,1.13c1.13,0,2.27-.57,3.4-1.13,1.13-.57,1.7-1.7,2.27-2.83s1.13-2.27,1.7-3.4c.57-1.13,.57-2.83,.57-3.97,0-1.7,0-2.83-.57-4.54-.57-1.13-.57-2.27-1.7-3.4-.57-1.13-1.7-1.7-2.27-2.27-1.13-.57-2.27-.57-3.4-.57-2.83,0-5.1,1.13-6.24,3.4-.57,1.13-1.13,2.27-1.13,3.4-1.13,1.13-1.13,2.27-1.13,3.97"/><path class="cls-1" d="M229.04,466.91c0,.38-.19,.57-.57,.57h-1.7c-.38,0-.57-.19-.57-.57v-3.4c-1.7,3.4-4.54,5.1-8.5,5.1-3.4,0-6.24-1.13-7.94-3.97-1.7-2.27-2.83-5.67-2.83-9.64,0-9.07,3.4-13.61,10.77-13.61,1.7,0,3.97,.57,5.1,1.13,1.7,.57,2.83,1.7,3.4,2.83v-15.31c0-.38,.19-.57,.57-.57h1.7c.38,0,.57,.19,.57,.57v36.85Zm-19.28-12.47c0,1.7,0,2.83,.57,3.97,0,1.13,.57,2.27,1.13,3.4,.57,1.13,1.7,2.27,2.83,2.83s2.27,1.13,3.97,1.13c1.13,0,2.27-.57,3.4-1.13,1.13-.57,1.7-1.7,2.27-2.83s1.13-2.27,1.7-3.4c.57-1.13,.57-2.83,.57-3.97,0-1.7,0-2.83-.57-4.54-.57-1.13-1.13-2.27-1.7-3.4-.57-1.13-1.7-1.7-2.27-2.27-1.13-.57-2.27-.57-3.4-.57-2.83,0-5.1,1.13-6.24,3.4-.57,1.13-1.13,2.27-1.13,3.4-1.13,1.13-1.13,2.27-1.13,3.97"/><path class="cls-1" d="M239.81,431.76c0-.57,0-1.13,.57-1.7s1.13-.57,1.7-.57,1.13,0,1.7,.57c.57,.57,.57,1.13,.57,1.7s0,1.13-.57,1.7-1.13,.57-1.7,.57-1.13,0-1.7-.57c-.57-.57-.57-1.13-.57-1.7m3.4,35.72h-2.27c-.38,0-.57-.19-.57-.57v-24.94c0-.38,.19-.57,.57-.57h2.27c.38,0,.57,.19,.57,.57v24.94c0,.57-.57,.57-.57,.57"/><path class="cls-1" d="M276.09,466.91c0,.38-.19,.57-.57,.57h-1.7c-.38,0-.57-.19-.57-.57v-15.31c0-2.83-.57-5.1-1.7-6.24-1.13-1.13-2.83-1.7-4.54-1.7-2.83,0-4.54,.57-6.24,2.27-1.13,1.7-2.27,3.4-2.27,6.24v15.31c0,.38-.19,.57-.57,.57h-1.7c-.38,0-.57-.19-.57-.57v-26.65h2.27c.38,0,.57,.19,.57,.57v2.83c1.13-1.13,2.27-2.27,3.4-2.83s2.83-1.13,5.1-1.13c2.83,0,5.67,1.13,6.8,2.83,1.7,1.7,2.27,4.54,2.27,7.37,0,0,0,16.44,0,16.44Z"/><path class="cls-1" d="M288.56,474.28c-.57,0-.57-.57-.57-.57v-2.27c0-.38,.19-.57,.57-.57,1.13,.57,2.27,1.13,3.4,1.13s2.27,.57,3.97,.57c2.83,0,5.1-1.13,6.8-2.83,1.7-1.7,2.27-4.54,2.27-7.37-.57,1.7-1.7,2.83-3.4,3.4-1.7,.57-2.83,1.13-5.1,1.13-1.7,0-2.83-.57-4.54-1.13-1.13-.57-2.83-1.7-3.4-2.27-1.13-1.13-1.7-2.27-2.27-3.97s-1.13-3.4-1.13-5.1c0-2.27,0-3.97,.57-5.67s1.13-3.4,1.7-4.54c1.13-1.13,2.27-2.27,3.4-2.83s2.83-1.13,5.1-1.13c1.7,0,3.4,.57,4.54,1.13s2.83,1.7,3.97,2.83v-2.83c0-.38,.19-.57,.57-.57h1.7c.38,0,.57,.19,.57,.57v19.84c0,2.27,0,3.97-.57,5.67s-1.13,3.4-2.27,4.54c-1.13,1.13-2.27,2.27-3.97,2.83-1.7,.57-3.4,1.13-5.67,1.13h-3.97c.57-.57-.57-1.13-2.27-1.13m17.01-19.84c0-3.4-.57-6.24-2.27-7.94-1.7-1.7-3.4-2.83-5.67-2.83-2.83,0-4.54,1.13-6.24,2.83-1.13,1.7-2.27,4.54-2.27,8.5,0,1.13,0,2.83,.57,3.97s1.13,2.27,1.7,2.83c.57,.57,1.7,1.7,2.27,1.7s1.7,.57,2.83,.57,2.27,0,3.4-.57,1.7-1.13,2.83-2.27c.57-1.13,1.13-1.7,1.7-2.83,1.13-1.7,1.13-2.83,1.13-3.97"/><path class="cls-1" d="M353.76,468.04c-1.13,0-1.7,0-2.83,.57h-3.4c-2.27,0-3.97-.57-5.67-1.13-1.7-.57-2.83-1.7-3.97-2.83s-1.7-2.83-2.27-4.54-1.13-3.4-1.13-5.67,.57-3.97,1.13-5.67,1.7-3.4,2.83-4.54,2.27-2.27,3.97-2.83c1.7-.57,3.4-1.13,5.67-1.13h2.83c1.13,0,1.7,0,2.83,.57,.57,0,.57,.57,.57,1.13v1.7c0,.57-.57,.57-.57,.57-1.13,0-1.7-.57-2.27-.57h-2.83c-1.7,0-3.4,0-4.54,.57-1.13,.57-2.27,1.13-3.4,2.27-.57,1.13-1.7,2.27-1.7,3.4-.57,1.13-.57,2.83-.57,4.54s0,2.83,.57,3.97,1.13,2.27,1.7,3.4c.57,1.13,1.7,1.7,2.83,2.27,1.13,.57,2.27,1.13,3.97,1.13h2.83c.57,0,1.7,0,2.27-.57,.38,0,.57,.19,.57,.57v1.7c.76,.38,.94,.76,.57,1.13"/><path class="cls-1" d="M386.64,454.43c0,1.7,0,3.97-.57,5.1-.57,1.7-1.13,2.83-2.27,4.54-1.13,1.13-2.27,2.27-3.97,3.4-1.7,.57-3.4,1.13-5.67,1.13s-3.97-.57-5.67-1.13c-1.7-.57-2.83-1.7-3.97-3.4-1.13-1.13-1.7-2.83-2.27-4.54s-.57-3.4-.57-5.1c0-3.97,1.13-7.37,2.83-9.64,2.27-2.83,5.67-4.54,9.64-4.54,2.27,0,3.97,.57,5.67,1.13,1.7,.57,2.83,1.7,3.97,3.4,1.7,2.27,2.83,5.67,2.83,9.64m-3.97,0c0-1.7,0-2.83-.57-4.54-.57-1.13-1.13-2.27-1.7-3.4-1.7-2.27-3.97-3.4-6.8-3.4-1.13,0-2.83,0-3.97,.57s-2.27,1.13-2.83,2.27-1.13,2.27-1.7,3.4c-.57,1.13-.57,2.83-.57,4.54s0,2.83,.57,4.54c.57,1.13,1.13,2.27,1.7,3.4,1.7,2.27,3.97,3.4,6.8,3.4,1.13,0,2.83,0,3.97-.57s2.27-1.13,2.83-2.27,1.13-2.27,1.7-3.4c.57-1.7,.57-2.83,.57-4.54"/><path class="cls-1" d="M417.25,466.91c0,.38-.19,.57-.57,.57h-1.7c-.38,0-.57-.19-.57-.57v-15.31c0-2.83-.57-5.1-1.7-6.24-1.13-1.13-2.83-1.7-4.54-1.7-2.83,0-4.54,.57-6.24,2.27-1.13,1.7-2.27,3.4-2.27,6.24v15.31c0,.38-.19,.57-.57,.57h-1.7c-.38,0-.57-.19-.57-.57v-26.65h2.27c.38,0,.57,.19,.57,.57v2.83c1.13-1.13,2.27-2.27,3.4-2.83s2.83-1.13,5.1-1.13c2.83,0,5.67,1.13,6.8,2.83,1.7,1.7,2.27,4.54,2.27,7.37,0,0,0,16.44,0,16.44Z"/><path class="cls-1" d="M438.23,466.91c0,.57-.57,.57-1.13,.57h-2.27c-.38,0-.76-.19-1.13-.57l-8.5-24.94v-.57h2.83c.38,0,.76,.19,1.13,.57l7.37,22.68,7.37-22.68s0-.57,.57-.57h3.4v.57s-9.64,24.94-9.64,24.94Z"/><path class="cls-1" d="M456.94,455.57c0,1.7,0,2.83,.57,4.54,.57,1.13,1.13,2.27,1.7,3.4,.57,1.13,1.7,1.7,2.83,1.7,1.13,.57,2.27,.57,3.4,.57s2.27,0,3.4-.57c1.13,0,2.27-.57,3.4-1.13,.38,0,.57,.19,.57,.57v2.27c0,.38-.19,.57-.57,.57-1.13,.57-2.27,.57-3.4,1.13-1.13,0-2.27,.57-3.97,.57-3.97,0-6.8-1.13-9.07-3.4-2.27-2.27-2.83-5.67-2.83-10.77,0-3.97,1.13-7.37,2.83-10.2,2.27-2.83,5.1-3.97,7.94-3.97,1.7,0,3.4,.57,4.54,1.13,1.13,.57,2.27,1.7,3.4,2.83,1.7,2.27,2.27,5.67,2.27,9.07v1.7h-17.01Zm14.74-2.83c0-1.13,0-2.27-.57-3.4,0-1.13-.57-1.7-1.13-2.83-1.13-1.7-2.83-2.83-5.1-2.83s-4.54,1.13-5.67,2.83c-.57,1.13-1.13,1.7-1.7,2.83s-.57,2.27-.57,3.4h14.74Z"/><path class="cls-1" d="M505.69,466.91c0,.38-.19,.57-.57,.57h-1.7c-.38,0-.57-.19-.57-.57v-15.31c0-2.83-.57-5.1-1.7-6.24-1.13-1.13-2.83-1.7-4.54-1.7-2.83,0-4.54,.57-6.24,2.27-1.13,1.7-2.27,3.4-2.27,6.24v15.31c0,.38-.19,.57-.57,.57h-1.7c-.38,0-.57-.19-.57-.57v-26.65h2.27c.38,0,.57,.19,.57,.57v2.83c1.13-1.13,2.27-2.27,3.4-2.83,1.13-.57,2.83-1.13,5.1-1.13,2.83,0,5.67,1.13,6.8,2.83,1.7,1.7,2.27,4.54,2.27,7.37v16.44h0Z"/><path class="cls-1" d="M530.07,467.47c-1.13,.57-2.83,.57-3.97,.57-2.83,0-4.54-1.13-5.1-2.83-.57-1.13-.57-3.4-.57-6.24v-15.87h-4.54c-.38,0-.57-.19-.57-.57v-1.7c0-.38,.19-.57,.57-.57h4.54v-6.8c0-.38,.19-.57,.57-.57h2.27c.38,0,.57,.19,.57,.57v6.8h5.67c.38,0,.57,.19,.57,.57v1.7c0,.38-.19,.57-.57,.57h-5.67v17.01c0,2.83,1.13,4.54,3.4,4.54,1.13,0,1.7,0,2.83-.57h.57v1.7c0,1.13-.57,1.7-.57,1.7"/><path class="cls-1" d="M537.44,431.76c0-.57,0-1.13,.57-1.7s1.13-.57,1.7-.57,1.13,0,1.7,.57,.57,1.13,.57,1.7,0,1.13-.57,1.7-1.13,.57-1.7,.57-1.13,0-1.7-.57c0-.57-.57-1.13-.57-1.7m3.4,35.72h-2.27c-.38,0-.57-.19-.57-.57v-24.94c0-.38,.19-.57,.57-.57h2.27c.38,0,.57,.19,.57,.57v24.94c0,.38-.19,.57-.57,.57"/><path class="cls-1" d="M575.99,454.43c0,1.7,0,3.97-.57,5.1-.57,1.7-1.13,2.83-2.27,4.54-1.13,1.13-2.27,2.27-3.97,3.4-1.7,.57-3.4,1.13-5.67,1.13s-3.97-.57-5.67-1.13c-1.7-.57-2.83-1.7-3.97-3.4-1.13-1.13-1.7-2.83-2.27-4.54-.57-1.7-.57-3.4-.57-5.1,0-3.97,1.13-7.37,2.83-9.64,2.27-2.83,5.67-4.54,9.64-4.54,2.27,0,3.97,.57,5.67,1.13,1.7,.57,2.83,1.7,3.97,3.4,1.7,2.27,2.83,5.67,2.83,9.64m-3.4,0c0-1.7,0-2.83-.57-4.54-.57-1.13-1.13-2.27-1.7-3.4-1.7-2.27-3.97-3.4-6.8-3.4-1.13,0-2.83,0-3.97,.57s-2.27,1.13-2.83,2.27-1.13,2.27-1.7,3.4c-.57,1.13-.57,2.83-.57,4.54s0,2.83,.57,4.54c.57,1.13,1.13,2.27,1.7,3.4,1.7,2.27,3.97,3.4,6.8,3.4,1.13,0,2.83,0,3.97-.57s2.27-1.13,2.83-2.27,1.13-2.27,1.7-3.4c0-1.7,.57-2.83,.57-4.54"/><path class="cls-1" d="M606.61,466.91c0,.38-.19,.57-.57,.57h-1.7c-.38,0-.57-.19-.57-.57v-15.31c0-2.83-.57-5.1-1.7-6.24-1.13-1.13-2.83-1.7-4.54-1.7-2.83,0-4.54,.57-6.24,2.27-1.13,1.7-2.27,3.4-2.27,6.24v15.31c0,.38-.19,.57-.57,.57h-1.7c-.38,0-.57-.19-.57-.57v-26.65h2.27c.38,0,.57,.19,.57,.57v2.83c1.13-1.13,2.27-2.27,3.4-2.83,1.13-.57,2.83-1.13,5.1-1.13,2.83,0,5.67,1.13,6.8,2.83,1.7,1.7,2.27,4.54,2.27,7.37v16.44h0Z"/><path class="cls-1" d="M22.68,290.66c2.27,0,4.54,.57,6.8,2.27,2.27,1.7,3.4,3.4,4.54,6.24l26.65,70.3,27.21-71.43c1.7-4.54,5.67-7.37,10.77-7.37h18.71v112.25h-19.84v-85.04l-31.75,85.04h-13.04l-29.48-80.5v80.5H7.37v-96.38c0-3.4-.57-6.24-1.7-9.07s-2.83-4.54-5.67-6.24H22.68v-.57h0Z"/><path class="cls-1" d="M169.51,402.35v-96.38c0-3.4-.57-6.24-1.7-9.07-1.13-2.83-2.83-4.54-5.67-6.24h72.57v14.17h-35.72c-3.4,0-5.67,.57-6.8,1.13-1.13,.57-1.7,2.27-1.7,4.54v27.21h39.68v13.61h-39.68v31.18c0,1.7,0,2.83,.57,3.4,0,1.13,.57,1.7,1.13,1.7,.57,.57,1.7,.57,2.83,.57h42.52v13.61h-68.03s0,.57,0,.57Z"/><path class="cls-1" d="M314.64,290.66c5.67,0,11.34,0,17.01,.57,5.67,.57,10.77,1.7,15.31,3.4,4.54,2.27,7.94,5.1,10.77,9.07,2.83,3.97,3.97,9.64,3.97,17.01,0,4.54-.57,8.5-1.7,11.91-1.13,3.4-2.83,6.24-5.1,8.5s-4.54,4.54-7.37,5.67c-2.83,1.7-5.67,2.27-8.5,3.4l30.05,52.16h-24.38l-27.21-48.76h-7.94v48.76h-20.98v-96.38c0-3.4-.57-6.24-1.7-9.07-1.13-2.83-2.83-4.54-5.67-6.24h33.45Zm26.65,30.61c0-3.4-.57-6.8-1.7-9.07-1.13-2.27-2.83-4.54-4.54-5.67-2.27-1.13-4.54-2.27-7.37-2.83s-5.67-.57-9.07-.57c-2.27,0-3.97,0-5.1,.57-1.13,0-2.27,.57-2.27,1.13-.57,.57-1.13,1.13-1.13,2.27v32.88h7.37c2.27,0,5.1,0,7.94-.57s5.1-1.13,7.37-2.83,3.97-3.4,5.67-5.67,2.83-5.67,2.83-9.64"/><path class="cls-1" d="M404.22,305.97c0-3.4-.57-6.24-1.7-9.07-1.13-2.83-2.83-4.54-5.67-6.24h20.98c1.7,0,3.4,.57,5.1,2.27,1.13,1.13,2.27,3.4,2.27,5.67v104.31h-20.98v-96.94Z"/><path class="cls-1" d="M508.53,290.66c7.94,0,15.31,.57,22.11,2.27,6.8,1.13,12.47,3.97,17.57,7.94,5.1,3.97,9.07,9.64,11.91,17.01,2.83,7.37,3.97,17.01,3.97,28.35,0,8.5-.57,16.44-2.27,22.11-1.7,6.24-3.4,11.34-6.24,15.31s-6.24,7.37-9.64,9.64c-3.97,2.27-7.94,4.54-12.47,5.67-4.54,1.13-9.07,2.27-14.74,2.27-5.1,.57-10.2,.57-15.87,.57h-26.08v-96.38c0-3.4-.57-6.24-1.7-9.07-1.13-2.83-2.83-4.54-5.67-6.24h39.12v.57h0Zm34.02,55.56c0-6.8-.57-12.47-1.13-18.14-.57-5.1-2.27-9.64-4.54-13.61-2.27-3.4-5.67-6.24-9.64-8.5-3.97-1.7-10.2-2.83-17.01-2.83-4.54,0-7.37,.57-9.07,1.13-1.7,.57-2.27,2.27-2.27,5.1v75.4c0,1.13,.57,1.7,1.13,2.27,.57,.57,1.7,1.13,2.83,1.7,1.13,.57,2.83,.57,5.67,.57,6.8,0,12.47-.57,17.01-2.27s7.94-3.97,10.77-7.37c2.27-3.4,4.54-7.94,5.1-13.04,.57-6.24,1.13-12.47,1.13-20.41"/><path class="cls-1" d="M697.31,402.35h-22.11l-11.34-32.88h-35.72l-11.91,32.88h-17.01l32.88-90.14c0-.57,.57-1.13,.57-2.27,.57-1.13,.57-1.7,1.13-2.83,.57-1.13,.57-2.27,.57-2.83,0-1.13,.57-1.7,.57-2.27,0-1.7,0-3.4-.57-5.67s-1.7-3.97-3.97-5.67h16.44c3.4,0,5.67,.57,7.37,2.27,1.7,1.7,3.4,3.4,4.54,6.24l38.55,103.18h0Zm-39.12-47.62l-12.47-35.15-12.47,35.15s24.94,0,24.94,0Z"/></g></svg>