<?xml version="1.0" encoding="UTF-8"?><svg id="_레이어_2" xmlns="http://www.w3.org/2000/svg" viewBox="0 0 171.7 43.6"><defs><style>.cls-1{fill:#fff;}</style></defs><g id="Layer_1"><g><path class="cls-1" d="M4.6,21.8C4.9,10.6,10.8,4.3,14.1,1.6c-1.3-1.1-2.3-1.6-2.3-1.6C11.8,0,.4,6.1,0,21.8c.4,15.7,11.8,21.8,11.8,21.8,0,0,1-.5,2.3-1.6-3.3-2.8-9.2-9.1-9.5-20.2"/><path class="cls-1" d="M23.7,21.8c-.2,6.7-2.4,11.7-4.8,15.1,.8,1.1,1.6,2,2.3,2.8,3.2-3.4,6.9-9.2,7.1-18-.2-8.8-3.9-14.6-7.1-18-.8,.8-1.6,1.7-2.3,2.8,2.4,3.6,4.6,8.6,4.8,15.3"/><path class="cls-1" d="M18.9,1.7c-1.4-1.2-2.4-1.7-2.4-1.7,0,0-1,.5-2.3,1.6,.7,.6,1.5,1.3,2.4,2.2,.8-.9,1.6-1.6,2.3-2.1"/><path class="cls-1" d="M16.6,39.7c-.9,.9-1.7,1.6-2.4,2.2,1.4,1.1,2.3,1.6,2.3,1.6,0,0,1-.5,2.4-1.7-.7-.5-1.5-1.2-2.3-2.1"/><path class="cls-1" d="M21.2,3.8c.9-.9,1.7-1.6,2.4-2.2-1.4-1.1-2.3-1.6-2.3-1.6,0,0-1,.5-2.4,1.7,.7,.5,1.5,1.2,2.3,2.1"/><path class="cls-1" d="M14,21.8c.2-6.7,2.4-11.7,4.8-15.1-.8-1.1-1.6-2-2.3-2.8-3.2,3.4-6.9,9.2-7.1,18,.2,8.8,3.9,14.6,7.1,18,.8-.8,1.6-1.7,2.3-2.8-2.4-3.7-4.6-8.6-4.8-15.3"/><path class="cls-1" d="M21.2,39.7c-.8,.9-1.6,1.6-2.3,2.1,1.4,1.1,2.4,1.7,2.4,1.7,0,0,1-.5,2.3-1.6-.7-.5-1.6-1.3-2.4-2.2"/><rect class="cls-1" x="16.6" y="36.9" width="4.6" height="5"/><path class="cls-1" d="M21.2,39.7c-.8-.8-1.6-1.7-2.3-2.8-.8,1.1-1.6,2-2.3,2.8,.8,.9,1.6,1.6,2.3,2.1,.7-.5,1.5-1.2,2.3-2.1"/><path class="cls-1" d="M21.2,39.7c-.8-.8-1.6-1.7-2.3-2.8-.8,1.1-1.6,2-2.3,2.8,.8,.9,1.6,1.6,2.3,2.1,.7-.5,1.5-1.2,2.3-2.1"/><rect class="cls-1" x="16.6" y="1.7" width="4.6" height="5"/><path class="cls-1" d="M21.2,3.8c-.8-.9-1.6-1.6-2.3-2.1-.7,.6-1.5,1.3-2.3,2.1,.8,.8,1.6,1.7,2.3,2.8,.7-1,1.5-2,2.3-2.8"/><path class="cls-1" d="M21.2,3.8c-.8-.9-1.6-1.6-2.3-2.1-.7,.6-1.5,1.3-2.3,2.1,.8,.8,1.6,1.7,2.3,2.8,.7-1,1.5-2,2.3-2.8"/><path class="cls-1" d="M25.9,0s-1,.5-2.3,1.6c3.4,2.7,9.3,9,9.5,20.2-.3,11.2-6.2,17.5-9.5,20.2,1.4,1.1,2.3,1.6,2.3,1.6,0,0,11.5-6.1,11.8-21.8C37.4,6.1,25.9,0,25.9,0"/><path class="cls-1" d="M71.4,41.5c0,.1-.1,.1-.1,.1h-.6q-.1,0-.1-.1l-1.6-5.6c-.3,.9-.5,1.9-.8,2.8-.3,.9-.5,1.9-.8,2.8,0,.1-.1,.1-.1,.1h-.6q-.1,0-.1-.1l-1.8-6.2v-.1h.5q.1,0,.2,.1l1.5,5.7c.3-.9,.5-1.9,.8-2.8,.3-.9,.5-1.8,.8-2.8q0-.1,.1-.1h.5c.1,0,.2,.1,.2,.2l1.6,5.5c.3-1,.5-1.9,.8-2.8,.3-.9,.5-1.8,.8-2.8,0,0,0-.1,.1-.1h.6v.1l-1.9,6.1Z"/><path class="cls-1" d="M74.6,39.5c0,.3,0,.5,.1,.8,.1,.2,.2,.4,.3,.6,.1,.2,.3,.3,.5,.3,.2,.1,.4,.1,.6,.1s.4,0,.6-.1c.2,0,.4-.1,.6-.2q.1,0,.1,.1v.4q0,.1-.1,.1c-.2,.1-.4,.1-.6,.2-.2,0-.4,.1-.7,.1-.7,0-1.2-.2-1.6-.6-.4-.4-.5-1-.5-1.9,0-.7,.2-1.3,.5-1.8,.4-.5,.9-.7,1.4-.7,.3,0,.6,.1,.8,.2s.4,.3,.6,.5c.3,.4,.4,1,.4,1.6v.3h-.3s-2.7,0-2.7,0Zm2.6-.5c0-.2,0-.4-.1-.6,0-.2-.1-.3-.2-.5-.2-.3-.5-.5-.9-.5s-.8,.2-1,.5c-.1,.2-.2,.3-.3,.5-.1,.2-.1,.4-.1,.6h2.6Z"/><path class="cls-1" d="M83.3,41.5q0,.1-.1,.1h-.3q-.1,0-.1-.1v-.6c-.3,.6-.8,.9-1.5,.9-.6,0-1.1-.2-1.4-.7-.3-.4-.5-1-.5-1.7,0-1.6,.6-2.4,1.9-2.4,.3,0,.7,.1,.9,.2,.3,.1,.5,.3,.6,.5v-2.7q0-.1,.1-.1h.3q.1,0,.1,.1v6.5Zm-3.3-2.2c0,.3,0,.5,.1,.7,0,.2,.1,.4,.2,.6,.1,.2,.3,.4,.5,.5s.4,.2,.7,.2c.2,0,.4-.1,.6-.2,.2-.1,.3-.3,.4-.5s.2-.4,.3-.6c.1-.2,.1-.5,.1-.7,0-.3,0-.5-.1-.8-.1-.2-.1-.4-.3-.6-.1-.2-.3-.3-.4-.4-.2-.1-.4-.1-.6-.1-.5,0-.9,.2-1.1,.6-.1,.2-.2,.4-.2,.6-.2,.2-.2,.4-.2,.7"/><path class="cls-1" d="M89.1,41.5q0,.1-.1,.1h-.3q-.1,0-.1-.1v-.6c-.3,.6-.8,.9-1.5,.9-.6,0-1.1-.2-1.4-.7-.3-.4-.5-1-.5-1.7,0-1.6,.6-2.4,1.9-2.4,.3,0,.7,.1,.9,.2,.3,.1,.5,.3,.6,.5v-2.7q0-.1,.1-.1h.3q.1,0,.1,.1v6.5Zm-3.4-2.2c0,.3,0,.5,.1,.7,0,.2,.1,.4,.2,.6,.1,.2,.3,.4,.5,.5s.4,.2,.7,.2c.2,0,.4-.1,.6-.2,.2-.1,.3-.3,.4-.5s.2-.4,.3-.6c.1-.2,.1-.5,.1-.7,0-.3,0-.5-.1-.8-.1-.2-.2-.4-.3-.6-.1-.2-.3-.3-.4-.4-.2-.1-.4-.1-.6-.1-.5,0-.9,.2-1.1,.6-.1,.2-.2,.4-.2,.6-.2,.2-.2,.4-.2,.7"/><path class="cls-1" d="M91,35.3c0-.1,0-.2,.1-.3s.2-.1,.3-.1,.2,0,.3,.1c.1,.1,.1,.2,.1,.3s0,.2-.1,.3-.2,.1-.3,.1-.2,0-.3-.1c-.1-.1-.1-.2-.1-.3m.6,6.3h-.4q-.1,0-.1-.1v-4.4q0-.1,.1-.1h.4q.1,0,.1,.1v4.4c0,.1-.1,.1-.1,.1"/><path class="cls-1" d="M97.4,41.5q0,.1-.1,.1h-.3q-.1,0-.1-.1v-2.7c0-.5-.1-.9-.3-1.1-.2-.2-.5-.3-.8-.3-.5,0-.8,.1-1.1,.4-.2,.3-.4,.6-.4,1.1v2.7q0,.1-.1,.1h-.3q-.1,0-.1-.1v-4.7h.4q.1,0,.1,.1v.5c.2-.2,.4-.4,.6-.5s.5-.2,.9-.2c.5,0,1,.2,1.2,.5,.3,.3,.4,.8,.4,1.3,0,0,0,2.9,0,2.9Z"/><path class="cls-1" d="M99.6,42.8c-.1,0-.1-.1-.1-.1v-.4q0-.1,.1-.1c.2,.1,.4,.2,.6,.2s.4,.1,.7,.1c.5,0,.9-.2,1.2-.5,.3-.3,.4-.8,.4-1.3-.1,.3-.3,.5-.6,.6-.3,.1-.5,.2-.9,.2-.3,0-.5-.1-.8-.2-.2-.1-.5-.3-.6-.4-.2-.2-.3-.4-.4-.7s-.2-.6-.2-.9c0-.4,0-.7,.1-1s.2-.6,.3-.8c.2-.2,.4-.4,.6-.5s.5-.2,.9-.2c.3,0,.6,.1,.8,.2s.5,.3,.7,.5v-.5q0-.1,.1-.1h.3q.1,0,.1,.1v3.5c0,.4,0,.7-.1,1s-.2,.6-.4,.8c-.2,.2-.4,.4-.7,.5-.3,.1-.6,.2-1,.2h-.7c.1-.1-.1-.2-.4-.2m3-3.5c0-.6-.1-1.1-.4-1.4-.3-.3-.6-.5-1-.5-.5,0-.8,.2-1.1,.5-.2,.3-.4,.8-.4,1.5,0,.2,0,.5,.1,.7s.2,.4,.3,.5c.1,.1,.3,.3,.4,.3s.3,.1,.5,.1,.4,0,.6-.1,.3-.2,.5-.4c.1-.2,.2-.3,.3-.5,.2-.3,.2-.5,.2-.7"/><path class="cls-1" d="M111.1,41.7c-.2,0-.3,0-.5,.1h-.6c-.4,0-.7-.1-1-.2-.3-.1-.5-.3-.7-.5s-.3-.5-.4-.8-.2-.6-.2-1,.1-.7,.2-1,.3-.6,.5-.8,.4-.4,.7-.5c.3-.1,.6-.2,1-.2h.5c.2,0,.3,0,.5,.1,.1,0,.1,.1,.1,.2v.3c0,.1-.1,.1-.1,.1-.2,0-.3-.1-.4-.1h-.5c-.3,0-.6,0-.8,.1-.2,.1-.4,.2-.6,.4-.1,.2-.3,.4-.3,.6-.1,.2-.1,.5-.1,.8s0,.5,.1,.7,.2,.4,.3,.6c.1,.2,.3,.3,.5,.4,.2,.1,.4,.2,.7,.2h.5c.1,0,.3,0,.4-.1q.1,0,.1,.1v.3q.2,.1,.1,.2"/><path class="cls-1" d="M116.9,39.3c0,.3,0,.7-.1,.9-.1,.3-.2,.5-.4,.8-.2,.2-.4,.4-.7,.6-.3,.1-.6,.2-1,.2s-.7-.1-1-.2c-.3-.1-.5-.3-.7-.6-.2-.2-.3-.5-.4-.8s-.1-.6-.1-.9c0-.7,.2-1.3,.5-1.7,.4-.5,1-.8,1.7-.8,.4,0,.7,.1,1,.2,.3,.1,.5,.3,.7,.6,.3,.4,.5,1,.5,1.7m-.7,0c0-.3,0-.5-.1-.8-.1-.2-.2-.4-.3-.6-.3-.4-.7-.6-1.2-.6-.2,0-.5,0-.7,.1s-.4,.2-.5,.4-.2,.4-.3,.6c-.1,.2-.1,.5-.1,.8s0,.5,.1,.8c.1,.2,.2,.4,.3,.6,.3,.4,.7,.6,1.2,.6,.2,0,.5,0,.7-.1s.4-.2,.5-.4,.2-.4,.3-.6c.1-.3,.1-.5,.1-.8"/><path class="cls-1" d="M122.3,41.5q0,.1-.1,.1h-.3q-.1,0-.1-.1v-2.7c0-.5-.1-.9-.3-1.1-.2-.2-.5-.3-.8-.3-.5,0-.8,.1-1.1,.4-.2,.3-.4,.6-.4,1.1v2.7q0,.1-.1,.1h-.3q-.1,0-.1-.1v-4.7h.4q.1,0,.1,.1v.5c.2-.2,.4-.4,.6-.5s.5-.2,.9-.2c.5,0,1,.2,1.2,.5,.3,.3,.4,.8,.4,1.3,0,0,0,2.9,0,2.9Z"/><path class="cls-1" d="M126,41.5c0,.1-.1,.1-.2,.1h-.4q-.1,0-.2-.1l-1.5-4.4v-.1h.5q.1,0,.2,.1l1.3,4,1.3-4s0-.1,.1-.1h.6v.1l-1.7,4.4Z"/><path class="cls-1" d="M129.3,39.5c0,.3,0,.5,.1,.8,.1,.2,.2,.4,.3,.6,.1,.2,.3,.3,.5,.3,.2,.1,.4,.1,.6,.1s.4,0,.6-.1c.2,0,.4-.1,.6-.2q.1,0,.1,.1v.4q0,.1-.1,.1c-.2,.1-.4,.1-.6,.2-.2,0-.4,.1-.7,.1-.7,0-1.2-.2-1.6-.6-.4-.4-.5-1-.5-1.9,0-.7,.2-1.3,.5-1.8,.4-.5,.9-.7,1.4-.7,.3,0,.6,.1,.8,.2,.2,.1,.4,.3,.6,.5,.3,.4,.4,1,.4,1.6v.3h-.3s-2.7,0-2.7,0Zm2.6-.5c0-.2,0-.4-.1-.6,0-.2-.1-.3-.2-.5-.2-.3-.5-.5-.9-.5s-.8,.2-1,.5c-.1,.2-.2,.3-.3,.5s-.1,.4-.1,.6h2.6Z"/><path class="cls-1" d="M137.9,41.5q0,.1-.1,.1h-.3q-.1,0-.1-.1v-2.7c0-.5-.1-.9-.3-1.1-.2-.2-.5-.3-.8-.3-.5,0-.8,.1-1.1,.4-.2,.3-.4,.6-.4,1.1v2.7q0,.1-.1,.1h-.3q-.1,0-.1-.1v-4.7h.4q.1,0,.1,.1v.5c.2-.2,.4-.4,.6-.5,.2-.1,.5-.2,.9-.2,.5,0,1,.2,1.2,.5,.3,.3,.4,.8,.4,1.3v2.9h0Z"/><path class="cls-1" d="M142.2,41.6c-.2,.1-.5,.1-.7,.1-.5,0-.8-.2-.9-.5-.1-.2-.1-.6-.1-1.1v-2.8h-.8q-.1,0-.1-.1v-.3q0-.1,.1-.1h.8v-1.2q0-.1,.1-.1h.4q.1,0,.1,.1v1.2h1q.1,0,.1,.1v.3q0,.1-.1,.1h-1v3c0,.5,.2,.8,.6,.8,.2,0,.3,0,.5-.1h.1v.3c0,.2-.1,.3-.1,.3"/><path class="cls-1" d="M143.5,35.3c0-.1,0-.2,.1-.3s.2-.1,.3-.1,.2,0,.3,.1,.1,.2,.1,.3,0,.2-.1,.3-.2,.1-.3,.1-.2,0-.3-.1c0-.1-.1-.2-.1-.3m.6,6.3h-.4q-.1,0-.1-.1v-4.4q0-.1,.1-.1h.4q.1,0,.1,.1v4.4q0,.1-.1,.1"/><path class="cls-1" d="M150.3,39.3c0,.3,0,.7-.1,.9-.1,.3-.2,.5-.4,.8-.2,.2-.4,.4-.7,.6-.3,.1-.6,.2-1,.2s-.7-.1-1-.2c-.3-.1-.5-.3-.7-.6-.2-.2-.3-.5-.4-.8-.1-.3-.1-.6-.1-.9,0-.7,.2-1.3,.5-1.7,.4-.5,1-.8,1.7-.8,.4,0,.7,.1,1,.2,.3,.1,.5,.3,.7,.6,.3,.4,.5,1,.5,1.7m-.6,0c0-.3,0-.5-.1-.8-.1-.2-.2-.4-.3-.6-.3-.4-.7-.6-1.2-.6-.2,0-.5,0-.7,.1s-.4,.2-.5,.4-.2,.4-.3,.6c-.1,.2-.1,.5-.1,.8s0,.5,.1,.8c.1,.2,.2,.4,.3,.6,.3,.4,.7,.6,1.2,.6,.2,0,.5,0,.7-.1s.4-.2,.5-.4,.2-.4,.3-.6c0-.3,.1-.5,.1-.8"/><path class="cls-1" d="M155.7,41.5q0,.1-.1,.1h-.3q-.1,0-.1-.1v-2.7c0-.5-.1-.9-.3-1.1-.2-.2-.5-.3-.8-.3-.5,0-.8,.1-1.1,.4-.2,.3-.4,.6-.4,1.1v2.7q0,.1-.1,.1h-.3q-.1,0-.1-.1v-4.7h.4q.1,0,.1,.1v.5c.2-.2,.4-.4,.6-.5,.2-.1,.5-.2,.9-.2,.5,0,1,.2,1.2,.5,.3,.3,.4,.8,.4,1.3v2.9h0Z"/><path class="cls-1" d="M52.7,12c.4,0,.8,.1,1.2,.4,.4,.3,.6,.6,.8,1.1l4.7,12.4,4.8-12.6c.3-.8,1-1.3,1.9-1.3h3.3V31.8h-3.5v-15l-5.6,15h-2.3l-5.2-14.2v14.2h-2.8V14.8c0-.6-.1-1.1-.3-1.6s-.5-.8-1-1.1h4v-.1Z"/><path class="cls-1" d="M78.6,31.7V14.7c0-.6-.1-1.1-.3-1.6-.2-.5-.5-.8-1-1.1h12.8v2.5h-6.3c-.6,0-1,.1-1.2,.2-.2,.1-.3,.4-.3,.8v4.8h7v2.4h-7v5.5c0,.3,0,.5,.1,.6,0,.2,.1,.3,.2,.3,.1,.1,.3,.1,.5,.1h7.5v2.4h-12v.1Z"/><path class="cls-1" d="M104.2,12c1,0,2,0,3,.1s1.9,.3,2.7,.6c.8,.4,1.4,.9,1.9,1.6,.5,.7,.7,1.7,.7,3,0,.8-.1,1.5-.3,2.1-.2,.6-.5,1.1-.9,1.5s-.8,.8-1.3,1c-.5,.3-1,.4-1.5,.6l5.3,9.2h-4.3l-4.8-8.6h-1.4v8.6h-3.7V14.7c0-.6-.1-1.1-.3-1.6-.2-.5-.5-.8-1-1.1h5.9Zm4.7,5.4c0-.6-.1-1.2-.3-1.6-.2-.4-.5-.8-.8-1-.4-.2-.8-.4-1.3-.5s-1-.1-1.6-.1c-.4,0-.7,0-.9,.1-.2,0-.4,.1-.4,.2-.1,.1-.2,.2-.2,.4v5.8h1.3c.4,0,.9,0,1.4-.1s.9-.2,1.3-.5,.7-.6,1-1c.3-.4,.5-1,.5-1.7"/><path class="cls-1" d="M120,14.7c0-.6-.1-1.1-.3-1.6-.2-.5-.5-.8-1-1.1h3.7c.3,0,.6,.1,.9,.4,.2,.2,.4,.6,.4,1V31.8h-3.7V14.7Z"/><path class="cls-1" d="M138.4,12c1.4,0,2.7,.1,3.9,.4,1.2,.2,2.2,.7,3.1,1.4,.9,.7,1.6,1.7,2.1,3,.5,1.3,.7,3,.7,5,0,1.5-.1,2.9-.4,3.9-.3,1.1-.6,2-1.1,2.7s-1.1,1.3-1.7,1.7c-.7,.4-1.4,.8-2.2,1s-1.6,.4-2.6,.4c-.9,.1-1.8,.1-2.8,.1h-4.6V14.6c0-.6-.1-1.1-.3-1.6s-.5-.8-1-1.1h6.9v.1Zm6,9.8c0-1.2-.1-2.2-.2-3.2-.1-.9-.4-1.7-.8-2.4-.4-.6-1-1.1-1.7-1.5-.7-.3-1.8-.5-3-.5-.8,0-1.3,.1-1.6,.2-.3,.1-.4,.4-.4,.9v13.3c0,.2,.1,.3,.2,.4,.1,.1,.3,.2,.5,.3,.2,.1,.5,.1,1,.1,1.2,0,2.2-.1,3-.4s1.4-.7,1.9-1.3c.4-.6,.8-1.4,.9-2.3,.1-1.1,.2-2.2,.2-3.6"/><path class="cls-1" d="M171.7,31.7h-3.9l-2-5.8h-6.3l-2.1,5.8h-3l5.8-15.9c0-.1,.1-.2,.1-.4,.1-.2,.1-.3,.2-.5,.1-.2,.1-.4,.1-.5,0-.2,.1-.3,.1-.4,0-.3,0-.6-.1-1s-.3-.7-.7-1h2.9c.6,0,1,.1,1.3,.4,.3,.3,.6,.6,.8,1.1l6.8,18.2Zm-6.9-8.4l-2.2-6.2-2.2,6.2h4.4Z"/></g></g></svg>