<?xml version="1.0" encoding="utf-8"?>
<!-- Generator: Adobe Illustrator 21.0.2, SVG Export Plug-In . SVG Version: 6.00 Build 0)  -->
<svg version="1.1" id="Layer_1" xmlns="http://www.w3.org/2000/svg" xmlns:xlink="http://www.w3.org/1999/xlink" x="0px" y="0px"
	 viewBox="0 0 171.7 43.6" style="enable-background:new 0 0 171.7 43.6;" xml:space="preserve">
<style type="text/css">
	.st0{clip-path:url(#SVGID_2_);}
	.st1{clip-path:url(#SVGID_4_);fill:#A0A1A2;}
	.st2{clip-path:url(#SVGID_4_);fill:#BDBBBB;}
	.st3{clip-path:url(#SVGID_4_);}
	.st4{clip-path:url(#SVGID_6_);fill:#D1D3D3;}
	.st5{clip-path:url(#SVGID_8_);fill:#D1D3D3;}
</style>
<g>
	<defs>
		<rect id="SVGID_1_" width="171.7" height="43.6"/>
	</defs>
	<clipPath id="SVGID_2_">
		<use xlink:href="#SVGID_1_"  style="overflow:visible;"/>
	</clipPath>
	<g class="st0">
		<defs>
			<rect id="SVGID_3_" y="0" width="171.7" height="43.6"/>
		</defs>
		<clipPath id="SVGID_4_">
			<use xlink:href="#SVGID_3_"  style="overflow:visible;"/>
		</clipPath>
		<path class="st1" d="M4.6,21.8c0.3-11.2,6.2-17.5,9.5-20.2C12.8,0.5,11.8,0,11.8,0S0.4,6.1,0,21.8c0.4,15.7,11.8,21.8,11.8,21.8
			s1-0.5,2.3-1.6C10.8,39.2,4.9,32.9,4.6,21.8"/>
		<path class="st2" d="M23.7,21.8c-0.2,6.7-2.4,11.7-4.8,15.1c0.8,1.1,1.6,2,2.3,2.8c3.2-3.4,6.9-9.2,7.1-18
			c-0.2-8.8-3.9-14.6-7.1-18c-0.8,0.8-1.6,1.7-2.3,2.8C21.3,10.1,23.5,15.1,23.7,21.8"/>
		<path class="st2" d="M18.9,1.7C17.5,0.5,16.5,0,16.5,0s-1,0.5-2.3,1.6c0.7,0.6,1.5,1.3,2.4,2.2C17.4,2.9,18.2,2.2,18.9,1.7"/>
		<path class="st2" d="M16.6,39.7c-0.9,0.9-1.7,1.6-2.4,2.2c1.4,1.1,2.3,1.6,2.3,1.6s1-0.5,2.4-1.7C18.2,41.3,17.4,40.6,16.6,39.7"
			/>
		<path class="st2" d="M21.2,3.8c0.9-0.9,1.7-1.6,2.4-2.2C22.2,0.5,21.3,0,21.3,0s-1,0.5-2.4,1.7C19.6,2.2,20.4,2.9,21.2,3.8"/>
		<path class="st2" d="M14,21.8c0.2-6.7,2.4-11.7,4.8-15.1c-0.8-1.1-1.6-2-2.3-2.8c-3.2,3.4-6.9,9.2-7.1,18c0.2,8.8,3.9,14.6,7.1,18
			c0.8-0.8,1.6-1.7,2.3-2.8C16.4,33.4,14.2,28.5,14,21.8"/>
		<path class="st2" d="M21.2,39.7c-0.8,0.9-1.6,1.6-2.3,2.1c1.4,1.1,2.4,1.7,2.4,1.7s1-0.5,2.3-1.6C22.9,41.4,22,40.6,21.2,39.7"/>
		<g class="st3">
			<g>
				<defs>
					<rect id="SVGID_5_" x="16.6" y="36.9" width="4.6" height="5"/>
				</defs>
				<clipPath id="SVGID_6_">
					<use xlink:href="#SVGID_5_"  style="overflow:visible;"/>
				</clipPath>
				<path class="st4" d="M21.2,39.7c-0.8-0.8-1.6-1.7-2.3-2.8c-0.8,1.1-1.6,2-2.3,2.8c0.8,0.9,1.6,1.6,2.3,2.1
					C19.6,41.3,20.4,40.6,21.2,39.7"/>
			</g>
		</g>
		<path class="st1" d="M21.2,39.7c-0.8-0.8-1.6-1.7-2.3-2.8c-0.8,1.1-1.6,2-2.3,2.8c0.8,0.9,1.6,1.6,2.3,2.1
			C19.6,41.3,20.4,40.6,21.2,39.7"/>
		<g class="st3">
			<g>
				<defs>
					<rect id="SVGID_7_" x="16.6" y="1.7" width="4.6" height="5"/>
				</defs>
				<clipPath id="SVGID_8_">
					<use xlink:href="#SVGID_7_"  style="overflow:visible;"/>
				</clipPath>
				<path class="st5" d="M21.2,3.8c-0.8-0.9-1.6-1.6-2.3-2.1c-0.7,0.6-1.5,1.3-2.3,2.1c0.8,0.8,1.6,1.7,2.3,2.8
					C19.6,5.6,20.4,4.6,21.2,3.8"/>
			</g>
		</g>
		<path class="st1" d="M21.2,3.8c-0.8-0.9-1.6-1.6-2.3-2.1c-0.7,0.6-1.5,1.3-2.3,2.1c0.8,0.8,1.6,1.7,2.3,2.8
			C19.6,5.6,20.4,4.6,21.2,3.8"/>
		<path class="st1" d="M25.9,0c0,0-1,0.5-2.3,1.6c3.4,2.7,9.3,9,9.5,20.2c-0.3,11.2-6.2,17.5-9.5,20.2c1.4,1.1,2.3,1.6,2.3,1.6
			s11.5-6.1,11.8-21.8C37.4,6.1,25.9,0,25.9,0"/>
		<path class="st1" d="M71.4,41.5c0,0.1-0.1,0.1-0.1,0.1h-0.6c-0.1,0-0.1,0-0.1-0.1L69,35.9c-0.3,0.9-0.5,1.9-0.8,2.8
			c-0.3,0.9-0.5,1.9-0.8,2.8c0,0.1-0.1,0.1-0.1,0.1h-0.6c-0.1,0-0.1,0-0.1-0.1l-1.8-6.2c0,0,0-0.1,0-0.1c0,0,0,0,0.1,0h0.4
			c0.1,0,0.1,0,0.2,0.1L67,41c0.3-0.9,0.5-1.9,0.8-2.8c0.3-0.9,0.5-1.8,0.8-2.8c0-0.1,0-0.1,0.1-0.1c0,0,0.1,0,0.1,0h0.4
			c0.1,0,0.2,0.1,0.2,0.2l1.6,5.5c0.3-1,0.5-1.9,0.8-2.8c0.3-0.9,0.5-1.8,0.8-2.8c0,0,0-0.1,0.1-0.1c0,0,0.1,0,0.1,0h0.4
			c0,0,0.1,0,0.1,0s0,0.1,0,0.1L71.4,41.5z"/>
		<path class="st1" d="M74.6,39.5c0,0.3,0,0.5,0.1,0.8c0.1,0.2,0.2,0.4,0.3,0.6c0.1,0.2,0.3,0.3,0.5,0.3c0.2,0.1,0.4,0.1,0.6,0.1
			c0.2,0,0.4,0,0.6-0.1c0.2,0,0.4-0.1,0.6-0.2c0.1,0,0.1,0,0.1,0.1v0.4c0,0.1,0,0.1-0.1,0.1c-0.2,0.1-0.4,0.1-0.6,0.2
			c-0.2,0-0.4,0.1-0.7,0.1c-0.7,0-1.2-0.2-1.6-0.6c-0.4-0.4-0.5-1-0.5-1.9c0-0.7,0.2-1.3,0.5-1.8c0.4-0.5,0.9-0.7,1.4-0.7
			c0.3,0,0.6,0.1,0.8,0.2c0.2,0.1,0.4,0.3,0.6,0.5c0.3,0.4,0.4,1,0.4,1.6c0,0.1,0,0.1,0,0.2c0,0,0,0.1,0,0.1s0,0-0.1,0
			c0,0-0.1,0-0.2,0H74.6z M77.2,39c0-0.2,0-0.4-0.1-0.6c0-0.2-0.1-0.3-0.2-0.5c-0.2-0.3-0.5-0.5-0.9-0.5c-0.4,0-0.8,0.2-1,0.5
			c-0.1,0.2-0.2,0.3-0.3,0.5c-0.1,0.2-0.1,0.4-0.1,0.6H77.2z"/>
		<path class="st1" d="M83.3,41.5c0,0.1,0,0.1-0.1,0.1h-0.3c-0.1,0-0.1,0-0.1-0.1v-0.6c-0.3,0.6-0.8,0.9-1.5,0.9
			c-0.6,0-1.1-0.2-1.4-0.7c-0.3-0.4-0.5-1-0.5-1.7c0-1.6,0.6-2.4,1.9-2.4c0.3,0,0.7,0.1,0.9,0.2c0.3,0.1,0.5,0.3,0.6,0.5v-2.7
			c0-0.1,0-0.1,0.1-0.1h0.3c0.1,0,0.1,0,0.1,0.1V41.5z M80,39.3c0,0.3,0,0.5,0.1,0.7c0,0.2,0.1,0.4,0.2,0.6c0.1,0.2,0.3,0.4,0.5,0.5
			c0.2,0.1,0.4,0.2,0.7,0.2c0.2,0,0.4-0.1,0.6-0.2c0.2-0.1,0.3-0.3,0.4-0.5c0.1-0.2,0.2-0.4,0.3-0.6c0.1-0.2,0.1-0.5,0.1-0.7
			c0-0.3,0-0.5-0.1-0.8c-0.1-0.2-0.1-0.4-0.3-0.6c-0.1-0.2-0.3-0.3-0.4-0.4c-0.2-0.1-0.4-0.1-0.6-0.1c-0.5,0-0.9,0.2-1.1,0.6
			c-0.1,0.2-0.2,0.4-0.2,0.6C80,38.8,80,39,80,39.3"/>
		<path class="st1" d="M89.1,41.5c0,0.1,0,0.1-0.1,0.1h-0.3c-0.1,0-0.1,0-0.1-0.1v-0.6c-0.3,0.6-0.8,0.9-1.5,0.9
			c-0.6,0-1.1-0.2-1.4-0.7c-0.3-0.4-0.5-1-0.5-1.7c0-1.6,0.6-2.4,1.9-2.4c0.3,0,0.7,0.1,0.9,0.2c0.3,0.1,0.5,0.3,0.6,0.5v-2.7
			c0-0.1,0-0.1,0.1-0.1h0.3c0.1,0,0.1,0,0.1,0.1V41.5z M85.7,39.3c0,0.3,0,0.5,0.1,0.7c0,0.2,0.1,0.4,0.2,0.6
			c0.1,0.2,0.3,0.4,0.5,0.5c0.2,0.1,0.4,0.2,0.7,0.2c0.2,0,0.4-0.1,0.6-0.2c0.2-0.1,0.3-0.3,0.4-0.5c0.1-0.2,0.2-0.4,0.3-0.6
			c0.1-0.2,0.1-0.5,0.1-0.7c0-0.3,0-0.5-0.1-0.8c-0.1-0.2-0.2-0.4-0.3-0.6c-0.1-0.2-0.3-0.3-0.4-0.4c-0.2-0.1-0.4-0.1-0.6-0.1
			c-0.5,0-0.9,0.2-1.1,0.6c-0.1,0.2-0.2,0.4-0.2,0.6C85.7,38.8,85.7,39,85.7,39.3"/>
		<path class="st1" d="M91,35.3c0-0.1,0-0.2,0.1-0.3c0.1-0.1,0.2-0.1,0.3-0.1c0.1,0,0.2,0,0.3,0.1c0.1,0.1,0.1,0.2,0.1,0.3
			c0,0.1,0,0.2-0.1,0.3c-0.1,0.1-0.2,0.1-0.3,0.1c-0.1,0-0.2,0-0.3-0.1C91,35.5,91,35.4,91,35.3 M91.6,41.6h-0.4
			c-0.1,0-0.1,0-0.1-0.1v-4.4c0-0.1,0-0.1,0.1-0.1h0.4c0.1,0,0.1,0,0.1,0.1v4.4C91.7,41.6,91.6,41.6,91.6,41.6"/>
		<path class="st1" d="M97.4,41.5c0,0.1,0,0.1-0.1,0.1h-0.3c-0.1,0-0.1,0-0.1-0.1v-2.7c0-0.5-0.1-0.9-0.3-1.1
			c-0.2-0.2-0.5-0.3-0.8-0.3c-0.5,0-0.8,0.1-1.1,0.4c-0.2,0.3-0.4,0.6-0.4,1.1v2.7c0,0.1,0,0.1-0.1,0.1h-0.3c-0.1,0-0.1,0-0.1-0.1
			V38c0-0.2,0-0.4,0-0.6c0-0.1,0-0.3,0-0.4c0,0,0-0.1,0-0.1c0,0,0.1,0,0.1,0h0.3c0.1,0,0.1,0,0.1,0.1v0.5c0.2-0.2,0.4-0.4,0.6-0.5
			c0.2-0.1,0.5-0.2,0.9-0.2c0.5,0,1,0.2,1.2,0.5c0.3,0.3,0.4,0.8,0.4,1.3V41.5z"/>
		<path class="st1" d="M99.6,42.8c-0.1,0-0.1-0.1-0.1-0.1l0-0.4c0-0.1,0-0.1,0.1-0.1c0.2,0.1,0.4,0.2,0.6,0.2c0.2,0,0.4,0.1,0.7,0.1
			c0.5,0,0.9-0.2,1.2-0.5c0.3-0.3,0.4-0.8,0.4-1.3c-0.1,0.3-0.3,0.5-0.6,0.6c-0.3,0.1-0.5,0.2-0.9,0.2c-0.3,0-0.5-0.1-0.8-0.2
			c-0.2-0.1-0.5-0.3-0.6-0.4c-0.2-0.2-0.3-0.4-0.4-0.7c-0.1-0.3-0.2-0.6-0.2-0.9c0-0.4,0-0.7,0.1-1c0.1-0.3,0.2-0.6,0.3-0.8
			c0.2-0.2,0.4-0.4,0.6-0.5c0.2-0.1,0.5-0.2,0.9-0.2c0.3,0,0.6,0.1,0.8,0.2c0.2,0.1,0.5,0.3,0.7,0.5l0-0.5c0-0.1,0-0.1,0.1-0.1h0.3
			c0.1,0,0.1,0,0.1,0.1v3.5c0,0.4,0,0.7-0.1,1c-0.1,0.3-0.2,0.6-0.4,0.8c-0.2,0.2-0.4,0.4-0.7,0.5c-0.3,0.1-0.6,0.2-1,0.2
			c-0.3,0-0.5,0-0.7,0C100.1,42.9,99.9,42.8,99.6,42.8 M102.6,39.3c0-0.6-0.1-1.1-0.4-1.4c-0.3-0.3-0.6-0.5-1-0.5
			c-0.5,0-0.8,0.2-1.1,0.5c-0.2,0.3-0.4,0.8-0.4,1.5c0,0.2,0,0.5,0.1,0.7c0.1,0.2,0.2,0.4,0.3,0.5c0.1,0.1,0.3,0.3,0.4,0.3
			s0.3,0.1,0.5,0.1c0.2,0,0.4,0,0.6-0.1s0.3-0.2,0.5-0.4c0.1-0.2,0.2-0.3,0.3-0.5C102.6,39.7,102.6,39.5,102.6,39.3"/>
		<path class="st1" d="M111.1,41.7c-0.2,0-0.3,0-0.5,0.1c-0.2,0-0.4,0-0.6,0c-0.4,0-0.7-0.1-1-0.2c-0.3-0.1-0.5-0.3-0.7-0.5
			c-0.2-0.2-0.3-0.5-0.4-0.8c-0.1-0.3-0.2-0.6-0.2-1c0-0.4,0.1-0.7,0.2-1c0.1-0.3,0.3-0.6,0.5-0.8c0.2-0.2,0.4-0.4,0.7-0.5
			c0.3-0.1,0.6-0.2,1-0.2c0.2,0,0.4,0,0.5,0c0.2,0,0.3,0,0.5,0.1c0.1,0,0.1,0.1,0.1,0.2l0,0.3c0,0.1-0.1,0.1-0.1,0.1
			c-0.2,0-0.3-0.1-0.4-0.1c-0.1,0-0.3,0-0.5,0c-0.3,0-0.6,0-0.8,0.1c-0.2,0.1-0.4,0.2-0.6,0.4c-0.1,0.2-0.3,0.4-0.3,0.6
			c-0.1,0.2-0.1,0.5-0.1,0.8c0,0.3,0,0.5,0.1,0.7c0.1,0.2,0.2,0.4,0.3,0.6c0.1,0.2,0.3,0.3,0.5,0.4c0.2,0.1,0.4,0.2,0.7,0.2
			c0.2,0,0.4,0,0.5,0c0.1,0,0.3,0,0.4-0.1c0.1,0,0.1,0,0.1,0.1l0,0.3C111.2,41.6,111.2,41.6,111.1,41.7"/>
		<path class="st1" d="M116.9,39.3c0,0.3,0,0.7-0.1,0.9c-0.1,0.3-0.2,0.5-0.4,0.8c-0.2,0.2-0.4,0.4-0.7,0.6c-0.3,0.1-0.6,0.2-1,0.2
			c-0.4,0-0.7-0.1-1-0.2c-0.3-0.1-0.5-0.3-0.7-0.6c-0.2-0.2-0.3-0.5-0.4-0.8c-0.1-0.3-0.1-0.6-0.1-0.9c0-0.7,0.2-1.3,0.5-1.7
			c0.4-0.5,1-0.8,1.7-0.8c0.4,0,0.7,0.1,1,0.2c0.3,0.1,0.5,0.3,0.7,0.6C116.7,38,116.9,38.6,116.9,39.3 M116.2,39.3
			c0-0.3,0-0.5-0.1-0.8c-0.1-0.2-0.2-0.4-0.3-0.6c-0.3-0.4-0.7-0.6-1.2-0.6c-0.2,0-0.5,0-0.7,0.1c-0.2,0.1-0.4,0.2-0.5,0.4
			c-0.1,0.2-0.2,0.4-0.3,0.6c-0.1,0.2-0.1,0.5-0.1,0.8c0,0.3,0,0.5,0.1,0.8c0.1,0.2,0.2,0.4,0.3,0.6c0.3,0.4,0.7,0.6,1.2,0.6
			c0.2,0,0.5,0,0.7-0.1c0.2-0.1,0.4-0.2,0.5-0.4c0.1-0.2,0.2-0.4,0.3-0.6C116.2,39.8,116.2,39.6,116.2,39.3"/>
		<path class="st1" d="M122.3,41.5c0,0.1,0,0.1-0.1,0.1h-0.3c-0.1,0-0.1,0-0.1-0.1v-2.7c0-0.5-0.1-0.9-0.3-1.1
			c-0.2-0.2-0.5-0.3-0.8-0.3c-0.5,0-0.8,0.1-1.1,0.4c-0.2,0.3-0.4,0.6-0.4,1.1v2.7c0,0.1,0,0.1-0.1,0.1h-0.3c-0.1,0-0.1,0-0.1-0.1
			V38c0-0.2,0-0.4,0-0.6s0-0.3,0-0.4c0,0,0-0.1,0-0.1c0,0,0.1,0,0.1,0h0.3c0.1,0,0.1,0,0.1,0.1v0.5c0.2-0.2,0.4-0.4,0.6-0.5
			c0.2-0.1,0.5-0.2,0.9-0.2c0.5,0,1,0.2,1.2,0.5c0.3,0.3,0.4,0.8,0.4,1.3V41.5z"/>
		<path class="st1" d="M126,41.5c0,0.1-0.1,0.1-0.2,0.1h-0.4c-0.1,0-0.1,0-0.2-0.1l-1.5-4.4c0,0,0-0.1,0-0.1c0,0,0,0,0.1,0h0.4
			c0.1,0,0.1,0,0.2,0.1l1.3,4l1.3-4c0,0,0-0.1,0.1-0.1c0,0,0.1,0,0.1,0h0.4c0,0,0.1,0,0.1,0c0,0,0,0.1,0,0.1L126,41.5z"/>
		<path class="st1" d="M129.3,39.5c0,0.3,0,0.5,0.1,0.8c0.1,0.2,0.2,0.4,0.3,0.6c0.1,0.2,0.3,0.3,0.5,0.3c0.2,0.1,0.4,0.1,0.6,0.1
			c0.2,0,0.4,0,0.6-0.1c0.2,0,0.4-0.1,0.6-0.2c0.1,0,0.1,0,0.1,0.1v0.4c0,0.1,0,0.1-0.1,0.1c-0.2,0.1-0.4,0.1-0.6,0.2
			c-0.2,0-0.4,0.1-0.7,0.1c-0.7,0-1.2-0.2-1.6-0.6c-0.4-0.4-0.5-1-0.5-1.9c0-0.7,0.2-1.3,0.5-1.8c0.4-0.5,0.9-0.7,1.4-0.7
			c0.3,0,0.6,0.1,0.8,0.2c0.2,0.1,0.4,0.3,0.6,0.5c0.3,0.4,0.4,1,0.4,1.6c0,0.1,0,0.1,0,0.2c0,0,0,0.1,0,0.1c0,0,0,0-0.1,0
			c0,0-0.1,0-0.2,0H129.3z M131.9,39c0-0.2,0-0.4-0.1-0.6c0-0.2-0.1-0.3-0.2-0.5c-0.2-0.3-0.5-0.5-0.9-0.5c-0.4,0-0.8,0.2-1,0.5
			c-0.1,0.2-0.2,0.3-0.3,0.5c-0.1,0.2-0.1,0.4-0.1,0.6H131.9z"/>
		<path class="st1" d="M137.9,41.5c0,0.1,0,0.1-0.1,0.1h-0.3c-0.1,0-0.1,0-0.1-0.1v-2.7c0-0.5-0.1-0.9-0.3-1.1
			c-0.2-0.2-0.5-0.3-0.8-0.3c-0.5,0-0.8,0.1-1.1,0.4c-0.2,0.3-0.4,0.6-0.4,1.1v2.7c0,0.1,0,0.1-0.1,0.1h-0.3c-0.1,0-0.1,0-0.1-0.1
			V38c0-0.2,0-0.4,0-0.6c0-0.1,0-0.3,0-0.4c0,0,0-0.1,0-0.1c0,0,0.1,0,0.1,0h0.3c0.1,0,0.1,0,0.1,0.1v0.5c0.2-0.2,0.4-0.4,0.6-0.5
			c0.2-0.1,0.5-0.2,0.9-0.2c0.5,0,1,0.2,1.2,0.5c0.3,0.3,0.4,0.8,0.4,1.3V41.5z"/>
		<path class="st1" d="M142.2,41.6c-0.2,0.1-0.5,0.1-0.7,0.1c-0.5,0-0.8-0.2-0.9-0.5c-0.1-0.2-0.1-0.6-0.1-1.1v-2.8h-0.8
			c-0.1,0-0.1,0-0.1-0.1v-0.3c0-0.1,0-0.1,0.1-0.1h0.8v-1.2c0-0.1,0-0.1,0.1-0.1h0.4c0.1,0,0.1,0,0.1,0.1v1.2h1c0.1,0,0.1,0,0.1,0.1
			v0.3c0,0.1,0,0.1-0.1,0.1h-1v3c0,0.5,0.2,0.8,0.6,0.8c0.2,0,0.3,0,0.5-0.1c0,0,0.1,0,0.1,0c0,0,0,0,0,0.1l0,0.2
			C142.3,41.5,142.2,41.6,142.2,41.6"/>
		<path class="st1" d="M143.5,35.3c0-0.1,0-0.2,0.1-0.3c0.1-0.1,0.2-0.1,0.3-0.1c0.1,0,0.2,0,0.3,0.1c0.1,0.1,0.1,0.2,0.1,0.3
			c0,0.1,0,0.2-0.1,0.3c-0.1,0.1-0.2,0.1-0.3,0.1c-0.1,0-0.2,0-0.3-0.1C143.6,35.5,143.5,35.4,143.5,35.3 M144.1,41.6h-0.4
			c-0.1,0-0.1,0-0.1-0.1v-4.4c0-0.1,0-0.1,0.1-0.1h0.4c0.1,0,0.1,0,0.1,0.1v4.4C144.2,41.6,144.2,41.6,144.1,41.6"/>
		<path class="st1" d="M150.3,39.3c0,0.3,0,0.7-0.1,0.9c-0.1,0.3-0.2,0.5-0.4,0.8c-0.2,0.2-0.4,0.4-0.7,0.6c-0.3,0.1-0.6,0.2-1,0.2
			c-0.4,0-0.7-0.1-1-0.2c-0.3-0.1-0.5-0.3-0.7-0.6c-0.2-0.2-0.3-0.5-0.4-0.8c-0.1-0.3-0.1-0.6-0.1-0.9c0-0.7,0.2-1.3,0.5-1.7
			c0.4-0.5,1-0.8,1.7-0.8c0.4,0,0.7,0.1,1,0.2c0.3,0.1,0.5,0.3,0.7,0.6C150.1,38,150.3,38.6,150.3,39.3 M149.7,39.3
			c0-0.3,0-0.5-0.1-0.8c-0.1-0.2-0.2-0.4-0.3-0.6c-0.3-0.4-0.7-0.6-1.2-0.6c-0.2,0-0.5,0-0.7,0.1c-0.2,0.1-0.4,0.2-0.5,0.4
			c-0.1,0.2-0.2,0.4-0.3,0.6c-0.1,0.2-0.1,0.5-0.1,0.8c0,0.3,0,0.5,0.1,0.8c0.1,0.2,0.2,0.4,0.3,0.6c0.3,0.4,0.7,0.6,1.2,0.6
			c0.2,0,0.5,0,0.7-0.1c0.2-0.1,0.4-0.2,0.5-0.4c0.1-0.2,0.2-0.4,0.3-0.6C149.6,39.8,149.7,39.6,149.7,39.3"/>
		<path class="st1" d="M155.7,41.5c0,0.1,0,0.1-0.1,0.1h-0.3c-0.1,0-0.1,0-0.1-0.1v-2.7c0-0.5-0.1-0.9-0.3-1.1
			c-0.2-0.2-0.5-0.3-0.8-0.3c-0.5,0-0.8,0.1-1.1,0.4c-0.2,0.3-0.4,0.6-0.4,1.1v2.7c0,0.1,0,0.1-0.1,0.1h-0.3c-0.1,0-0.1,0-0.1-0.1
			V38c0-0.2,0-0.4,0-0.6c0-0.1,0-0.3,0-0.4c0,0,0-0.1,0-0.1c0,0,0.1,0,0.1,0h0.3c0.1,0,0.1,0,0.1,0.1v0.5c0.2-0.2,0.4-0.4,0.6-0.5
			c0.2-0.1,0.5-0.2,0.9-0.2c0.5,0,1,0.2,1.2,0.5c0.3,0.3,0.4,0.8,0.4,1.3V41.5z"/>
		<path class="st1" d="M52.7,12c0.4,0,0.8,0.1,1.2,0.4c0.4,0.3,0.6,0.6,0.8,1.1l4.7,12.4l4.8-12.6c0.3-0.8,1-1.3,1.9-1.3h3.3v19.8
			h-3.5l0-15l-5.6,15H58l-5.2-14.2l0,14.2H50v-17c0-0.6-0.1-1.1-0.3-1.6c-0.2-0.5-0.5-0.8-1-1.1H52.7z"/>
		<path class="st1" d="M78.6,31.7v-17c0-0.6-0.1-1.1-0.3-1.6c-0.2-0.5-0.5-0.8-1-1.1h12.8v2.5h-6.3c-0.6,0-1,0.1-1.2,0.2
			c-0.2,0.1-0.3,0.4-0.3,0.8v4.8h7v2.4h-7v5.5c0,0.3,0,0.5,0.1,0.6c0,0.2,0.1,0.3,0.2,0.3c0.1,0.1,0.3,0.1,0.5,0.1
			c0.2,0,0.4,0,0.8,0h6.7v2.4H78.6z"/>
		<path class="st1" d="M104.2,12c1,0,2,0,3,0.1c1,0.1,1.9,0.3,2.7,0.6c0.8,0.4,1.4,0.9,1.9,1.6c0.5,0.7,0.7,1.7,0.7,3
			c0,0.8-0.1,1.5-0.3,2.1c-0.2,0.6-0.5,1.1-0.9,1.5c-0.4,0.4-0.8,0.8-1.3,1c-0.5,0.3-1,0.4-1.5,0.6l5.3,9.2h-4.3l-4.8-8.6h-1.4v8.6
			h-3.7v-17c0-0.6-0.1-1.1-0.3-1.6c-0.2-0.5-0.5-0.8-1-1.1H104.2z M108.9,17.4c0-0.6-0.1-1.2-0.3-1.6c-0.2-0.4-0.5-0.8-0.8-1
			c-0.4-0.2-0.8-0.4-1.3-0.5c-0.5-0.1-1-0.1-1.6-0.1c-0.4,0-0.7,0-0.9,0.1c-0.2,0-0.4,0.1-0.4,0.2c-0.1,0.1-0.2,0.2-0.2,0.4
			c0,0.2,0,0.4,0,0.6v5.2h1.3c0.4,0,0.9,0,1.4-0.1c0.5-0.1,0.9-0.2,1.3-0.5s0.7-0.6,1-1C108.7,18.7,108.9,18.1,108.9,17.4"/>
		<path class="st1" d="M120,14.7c0-0.6-0.1-1.1-0.3-1.6c-0.2-0.5-0.5-0.8-1-1.1h3.7c0.3,0,0.6,0.1,0.9,0.4c0.2,0.2,0.4,0.6,0.4,1
			v18.4H120V14.7z"/>
		<path class="st1" d="M138.4,12c1.4,0,2.7,0.1,3.9,0.4c1.2,0.2,2.2,0.7,3.1,1.4c0.9,0.7,1.6,1.7,2.1,3c0.5,1.3,0.7,3,0.7,5
			c0,1.5-0.1,2.9-0.4,3.9c-0.3,1.1-0.6,2-1.1,2.7c-0.5,0.7-1.1,1.3-1.7,1.7c-0.7,0.4-1.4,0.8-2.2,1c-0.8,0.2-1.6,0.4-2.6,0.4
			c-0.9,0.1-1.8,0.1-2.8,0.1h-4.6v-17c0-0.6-0.1-1.1-0.3-1.6c-0.2-0.5-0.5-0.8-1-1.1H138.4z M144.4,21.8c0-1.2-0.1-2.2-0.2-3.2
			c-0.1-0.9-0.4-1.7-0.8-2.4c-0.4-0.6-1-1.1-1.7-1.5c-0.7-0.3-1.8-0.5-3-0.5c-0.8,0-1.3,0.1-1.6,0.2c-0.3,0.1-0.4,0.4-0.4,0.9V28
			c0,0.2,0,0.4,0,0.6c0,0.2,0.1,0.3,0.2,0.4c0.1,0.1,0.3,0.2,0.5,0.3c0.2,0.1,0.5,0.1,1,0.1c1.2,0,2.2-0.1,3-0.4
			c0.8-0.3,1.4-0.7,1.9-1.3c0.4-0.6,0.8-1.4,0.9-2.3C144.3,24.3,144.4,23.2,144.4,21.8"/>
		<path class="st1" d="M171.7,31.7h-3.9l-2-5.8h-6.3l-2.1,5.8h-3l5.8-15.9c0-0.1,0.1-0.2,0.1-0.4c0.1-0.2,0.1-0.3,0.2-0.5
			c0.1-0.2,0.1-0.4,0.1-0.5c0-0.2,0.1-0.3,0.1-0.4c0-0.3,0-0.6-0.1-1c-0.1-0.4-0.3-0.7-0.7-1h2.9c0.6,0,1,0.1,1.3,0.4
			c0.3,0.3,0.6,0.6,0.8,1.1L171.7,31.7z M164.8,23.3l-2.2-6.2l-2.2,6.2H164.8z"/>
	</g>
</g>
</svg>
