<svg width="20" height="21" viewBox="0 0 20 21" fill="none" xmlns="http://www.w3.org/2000/svg">
<g clip-path="url(#clip0_157_3852)">
<path d="M18.5938 10.0625C18.3646 7.70833 17.4219 5.70312 15.7656 4.04688C14.1094 2.39062 12.1146 1.45833 9.78125 1.25V0.5625C11.0521 0.645833 12.2448 0.947917 13.3594 1.46875C14.474 1.98958 15.4531 2.67708 16.2969 3.53125C17.1406 4.38542 17.8229 5.36979 18.3438 6.48437C18.8646 7.59896 19.1771 8.79167 19.2812 10.0625H18.5938ZM13.5 10.0625C13.2708 9.125 12.8281 8.31771 12.1719 7.64062C11.5156 6.96354 10.7188 6.53125 9.78125 6.34375V5.65625C10.9063 5.84375 11.8646 6.33854 12.6563 7.14063C13.4479 7.94271 13.9583 8.91667 14.1875 10.0625H13.5ZM17.7813 20.4375C15.8021 20.4375 13.7604 19.8854 11.6563 18.7812C9.55208 17.6771 7.63542 16.2656 5.90625 14.5469C4.17708 12.8281 2.76042 10.9219 1.65625 8.82812C0.552084 6.73437 0 4.69792 0 2.71875C0 2.34375 0.130208 2.02604 0.390625 1.76563C0.651042 1.50521 0.96875 1.375 1.34375 1.375H3.625C4 1.375 4.31771 1.48437 4.57813 1.70312C4.83854 1.92187 5.01042 2.21875 5.09375 2.59375L5.6875 5.03125C5.75 5.36458 5.73958 5.66667 5.65625 5.9375C5.57292 6.20833 5.42708 6.42708 5.21875 6.59375L2.5625 9.03125C3.8125 11.1146 5.17708 12.8854 6.65625 14.3438C8.13542 15.8021 9.88542 17.0833 11.9063 18.1875L14.5 15.4687C14.7083 15.2396 14.9323 15.0833 15.1719 15C15.4115 14.9167 15.6771 14.9062 15.9688 14.9688L17.9062 15.4062C18.2812 15.4688 18.5781 15.6354 18.7969 15.9062C19.0156 16.1771 19.125 16.5104 19.125 16.9062V19.0938C19.125 19.4688 18.9948 19.7865 18.7344 20.0469C18.474 20.3073 18.1563 20.4375 17.7813 20.4375ZM2.1875 8.4375L4.84375 6.03125C4.92708 5.94792 4.98438 5.83333 5.01563 5.6875C5.04688 5.54167 5.05208 5.40625 5.03125 5.28125L4.40625 2.5625C4.38542 2.39583 4.31771 2.27083 4.20313 2.1875C4.08854 2.10417 3.94792 2.0625 3.78125 2.0625H1.125C1 2.0625 0.895834 2.10417 0.8125 2.1875C0.729167 2.27083 0.6875 2.375 0.6875 2.5C0.645834 3.33333 0.765625 4.25521 1.04688 5.26562C1.32813 6.27604 1.70833 7.33333 2.1875 8.4375ZM12.5625 18.4688C13.4167 18.9271 14.3646 19.2604 15.4062 19.4688C16.4479 19.6771 17.3125 19.7812 18 19.7812C18.125 19.7812 18.2292 19.7396 18.3125 19.6562C18.3958 19.5729 18.4375 19.4688 18.4375 19.3438V16.7188C18.4375 16.5521 18.3958 16.4115 18.3125 16.2969C18.2292 16.1823 18.1042 16.1146 17.9375 16.0938L15.7188 15.625C15.5938 15.6042 15.4844 15.6094 15.3906 15.6406C15.2969 15.6719 15.1979 15.7292 15.0938 15.8125L12.5625 18.4688Z" fill="white"/>
</g>
<defs>
<clipPath id="clip0_157_3852">
<rect width="19.2812" height="19.875" fill="white" transform="translate(0 0.5625)"/>
</clipPath>
</defs>
</svg>
